<svg width="30" height="24" viewBox="0 0 30 24" fill="none" xmlns="http://www.w3.org/2000/svg">
<path id="Primary" d="M7.17562 0.272461H7.50843H7.5178C7.80843 0.277148 8.09437 0.300586 8.3803 0.338086C8.68499 0.380273 8.91937 0.600586 8.99437 0.886523L9.42093 2.51777C10.0631 2.75684 10.6537 3.09902 11.1694 3.52559L12.7959 3.08027C13.0772 3.00059 13.3912 3.09434 13.5787 3.33809C13.7522 3.56309 13.9162 3.80215 14.0662 4.0459L14.0709 4.05527L14.2444 4.35527L14.2491 4.36465C14.385 4.61777 14.5116 4.88027 14.6241 5.15215C14.7412 5.43809 14.6662 5.75215 14.4553 5.9584L13.2553 7.14434C13.3116 7.47246 13.3397 7.80996 13.3397 8.15215C13.3397 8.49434 13.3116 8.83184 13.2553 9.15996L14.4553 10.3412C14.6662 10.5475 14.7412 10.8662 14.6241 11.1475C14.4975 11.4568 14.3522 11.7521 14.1881 12.0428L14.1412 12.1271C13.9725 12.4131 13.7897 12.6896 13.5834 12.9521C13.3959 13.1959 13.0819 13.2896 12.8006 13.21L11.1741 12.7646C10.6584 13.1912 10.0678 13.5381 9.42562 13.7725L8.99905 15.4037C8.92405 15.685 8.68968 15.91 8.38499 15.9521C8.09437 15.9896 7.79905 16.0131 7.51312 16.0225H7.50374H7.17093H7.16155C6.87093 16.0178 6.5803 15.9943 6.29905 15.9568C5.99437 15.9146 5.75999 15.6943 5.68499 15.4084L5.25843 13.7771C4.61624 13.5381 4.02562 13.1959 3.50999 12.7693L1.88343 13.2146C1.60218 13.2943 1.28812 13.2006 1.10062 12.9568C0.922491 12.7271 0.758428 12.4881 0.608428 12.235L0.603741 12.2303L0.444366 11.9537L0.439678 11.949C0.299053 11.6912 0.172491 11.4287 0.0599907 11.1521C-0.0571968 10.8662 0.0178032 10.5521 0.228741 10.3459L1.42874 9.15996C1.37249 8.83184 1.34437 8.49434 1.34437 8.15215C1.34437 7.80996 1.37249 7.47246 1.42874 7.14434L0.224053 5.95371C0.0131157 5.74746 -0.0618843 5.42871 0.0553032 5.14746C0.322491 4.50059 0.674053 3.8959 1.10062 3.34277C1.28812 3.09902 1.60218 3.00527 1.88343 3.08496L3.50999 3.53027C4.02562 3.10371 4.61624 2.75684 5.25843 2.52246L5.68499 0.891211C5.75999 0.609961 5.99437 0.384961 6.29905 0.342773C6.58968 0.305273 6.88499 0.281836 7.17562 0.272461ZM7.1803 1.02246C6.92249 1.02715 6.66468 1.05059 6.40218 1.0834L5.92874 2.90215C5.89593 3.02402 5.80218 3.12246 5.68499 3.16465C5.00062 3.38965 4.37718 3.75527 3.85218 4.22402C3.75843 4.3084 3.62718 4.34121 3.5053 4.30371L1.69124 3.80684C1.30687 4.30371 0.992803 4.84746 0.753741 5.42402L2.08968 6.7459C2.17874 6.83496 2.22093 6.96152 2.1928 7.08809C2.12718 7.43027 2.08968 7.78184 2.08968 8.14746C2.08968 8.51309 2.12718 8.86465 2.19749 9.20684C2.22093 9.3334 2.18343 9.45996 2.09437 9.54902L0.753741 10.8709C0.852178 11.1146 0.969366 11.3537 1.09124 11.5787L1.24593 11.8506C1.38187 12.0709 1.52718 12.2865 1.68187 12.4881L3.50062 11.9912C3.62249 11.9584 3.75374 11.9865 3.84749 12.0709C4.37718 12.5396 4.99593 12.9053 5.6803 13.1303C5.80218 13.1725 5.89124 13.2709 5.92405 13.3928L6.39749 15.2115C6.65062 15.2443 6.90843 15.2631 7.16624 15.2725H7.48968C7.74749 15.2678 8.0053 15.2443 8.2678 15.2115L8.74593 13.3928C8.77874 13.2709 8.87249 13.1725 8.98968 13.1303C9.67405 12.9053 10.2975 12.5396 10.8272 12.0709C10.9209 11.9865 11.0522 11.9537 11.1741 11.9912L12.9881 12.4881C13.1709 12.2537 13.335 12.0053 13.485 11.7521L13.5319 11.6725C13.6772 11.4146 13.8084 11.1475 13.9209 10.8756L12.585 9.55371C12.4959 9.46465 12.4537 9.33809 12.4819 9.21152C12.5522 8.86934 12.5897 8.51309 12.5897 8.15215C12.5897 7.79121 12.5522 7.43496 12.4819 7.09277C12.4584 6.96621 12.4959 6.83965 12.585 6.75059L13.9209 5.42871C13.8225 5.18965 13.71 4.95527 13.5881 4.73027L13.4194 4.43965C13.2881 4.21934 13.1428 4.01309 12.9881 3.81152L11.1787 4.30371C11.0569 4.33652 10.9256 4.3084 10.8319 4.22402C10.3022 3.75527 9.68343 3.38965 8.99905 3.16465C8.87718 3.12246 8.78812 3.02402 8.7553 2.90215L8.27249 1.0834C8.01937 1.05059 7.76155 1.03184 7.50843 1.02246H7.18499H7.1803ZM4.71468 8.14746C4.71468 7.80274 4.78258 7.4614 4.91449 7.14292C5.04641 6.82444 5.23977 6.53506 5.48352 6.29131C5.72728 6.04755 6.01665 5.8542 6.33513 5.72228C6.65361 5.59036 6.99496 5.52246 7.33968 5.52246C7.6844 5.52246 8.02574 5.59036 8.34422 5.72228C8.6627 5.8542 8.95208 6.04755 9.19583 6.29131C9.43959 6.53506 9.63294 6.82444 9.76486 7.14292C9.89678 7.4614 9.96468 7.80274 9.96468 8.14746C9.96468 8.49218 9.89678 8.83352 9.76486 9.152C9.63294 9.47048 9.43959 9.75986 9.19583 10.0036C8.95208 10.2474 8.6627 10.4407 8.34422 10.5726C8.02574 10.7046 7.6844 10.7725 7.33968 10.7725C6.99496 10.7725 6.65361 10.7046 6.33513 10.5726C6.01665 10.4407 5.72728 10.2474 5.48352 10.0036C5.23977 9.75986 5.04641 9.47048 4.91449 9.152C4.78258 8.83352 4.71468 8.49218 4.71468 8.14746ZM7.33968 10.0225C7.83696 10.0225 8.31387 9.82492 8.6655 9.47329C9.01713 9.12165 9.21468 8.64474 9.21468 8.14746C9.21468 7.65018 9.01713 7.17327 8.6655 6.82164C8.31387 6.47 7.83696 6.27246 7.33968 6.27246C6.8424 6.27246 6.36548 6.47 6.01385 6.82164C5.66222 7.17327 5.46468 7.65018 5.46468 8.14746C5.46468 8.64474 5.66222 9.12165 6.01385 9.47329C6.36548 9.82492 6.8424 10.0225 7.33968 10.0225ZM13.7147 16.5568V16.224V16.2146C13.7194 15.924 13.7428 15.6334 13.7803 15.3521C13.8225 15.0475 14.0428 14.8131 14.3287 14.7381L15.96 14.3115C16.1991 13.6693 16.5412 13.0787 16.9678 12.5631L16.5225 10.9365C16.4428 10.6553 16.5366 10.3412 16.7803 10.1537C17.0053 9.98027 17.2444 9.81621 17.4881 9.66621L17.4975 9.66152L17.7975 9.48809L17.8069 9.4834C18.06 9.34746 18.3225 9.2209 18.5944 9.1084C18.8803 8.99121 19.1944 9.06621 19.4006 9.27715L20.5866 10.4771C20.9147 10.4209 21.2522 10.3928 21.5944 10.3928C21.9366 10.3928 22.2741 10.4209 22.6022 10.4771L23.7834 9.27715C23.9897 9.06621 24.3084 8.99121 24.5897 9.1084C24.8991 9.23496 25.1944 9.38027 25.485 9.54434L25.5694 9.59121C25.8553 9.75996 26.1319 9.94277 26.3944 10.149C26.6381 10.3365 26.7319 10.6506 26.6522 10.9318L26.2069 12.5584C26.6334 13.074 26.9803 13.6646 27.2147 14.3068L28.8459 14.7334C29.1272 14.8084 29.3522 15.0428 29.3944 15.3475C29.4319 15.6381 29.4553 15.9334 29.4647 16.2193V16.2287V16.5615V16.5709C29.46 16.8615 29.4366 17.1521 29.3991 17.4334C29.3569 17.7381 29.1366 17.9725 28.8506 18.0475L27.2194 18.474C26.9803 19.1162 26.6381 19.7068 26.2116 20.2225L26.6569 21.849C26.7366 22.1303 26.6428 22.4443 26.3991 22.6318C26.1694 22.81 25.9303 22.974 25.6772 23.124L25.6725 23.1287L25.3959 23.2881L25.3866 23.2928C25.1287 23.4334 24.8662 23.56 24.5897 23.6725C24.3037 23.7896 23.9897 23.7146 23.7834 23.5037L22.5975 22.3037C22.2694 22.36 21.9319 22.3881 21.5897 22.3881C21.2475 22.3881 20.91 22.36 20.5819 22.3037L19.3959 23.5037C19.1897 23.7146 18.8709 23.7896 18.5897 23.6725C17.9428 23.4053 17.3381 23.0537 16.785 22.6271C16.5412 22.4396 16.4475 22.1256 16.5272 21.8443L16.9725 20.2178C16.5459 19.7021 16.1991 19.1115 15.9647 18.4693L14.3334 18.0428C14.0522 17.9678 13.8272 17.7334 13.785 17.4287C13.7475 17.1381 13.7241 16.8428 13.7147 16.5521V16.5428V16.5568ZM14.4647 16.5521C14.4694 16.81 14.4928 17.0678 14.5256 17.3303L16.3444 17.8037C16.4662 17.8365 16.5647 17.9256 16.6069 18.0475C16.8319 18.7318 17.1975 19.3553 17.6662 19.8803C17.7506 19.974 17.7834 20.1053 17.7459 20.2271L17.2491 22.0412C17.7459 22.4209 18.2897 22.735 18.8662 22.974L20.1881 21.6381C20.2772 21.549 20.4037 21.5068 20.5303 21.535C20.8725 21.6053 21.2287 21.6428 21.5897 21.6428C21.9506 21.6428 22.3069 21.6053 22.6491 21.535C22.7756 21.5115 22.9022 21.549 22.9912 21.6381L24.3131 22.974C24.5569 22.8756 24.7959 22.7584 25.0209 22.6365L25.2928 22.4818C25.5131 22.3459 25.7287 22.2006 25.9303 22.0459L25.4334 20.2365C25.4006 20.1146 25.4287 19.9834 25.5131 19.8896C25.9819 19.36 26.3475 18.7412 26.5725 18.0568C26.6147 17.935 26.7131 17.8459 26.835 17.8131L28.6537 17.3396C28.6866 17.0865 28.7053 16.8287 28.7147 16.5709V16.2475C28.71 15.9896 28.6866 15.7318 28.6537 15.4693L26.835 14.9912C26.7131 14.9584 26.6147 14.8646 26.5725 14.7475C26.3475 14.0631 25.9819 13.4396 25.5131 12.91C25.4287 12.8162 25.3959 12.685 25.4334 12.5631L25.9303 10.749C25.6959 10.5662 25.4475 10.4021 25.1944 10.2521L25.1147 10.2053C24.8569 10.06 24.5897 9.92871 24.3178 9.81621L22.9959 11.1521C22.9069 11.2412 22.7803 11.2834 22.6537 11.2553C22.3116 11.185 21.9553 11.1475 21.5944 11.1475C21.2334 11.1475 20.8772 11.185 20.535 11.2553C20.4084 11.2787 20.2819 11.2412 20.1928 11.1521L18.8709 9.81621C18.6319 9.91465 18.3975 10.0271 18.1725 10.149L17.8819 10.3178C17.6616 10.449 17.4553 10.5943 17.2537 10.749L17.7459 12.5584C17.7787 12.6803 17.7506 12.8115 17.6662 12.9053C17.1975 13.435 16.8319 14.0537 16.6069 14.7381C16.5647 14.86 16.4662 14.949 16.3444 14.9818L14.5256 15.4553C14.4928 15.7084 14.4741 15.9615 14.4647 16.2193V16.5428V16.5521ZM21.5897 19.0225C20.8935 19.0225 20.2258 18.7459 19.7335 18.2536C19.2412 17.7613 18.9647 17.0937 18.9647 16.3975C18.9647 15.7013 19.2412 15.0336 19.7335 14.5413C20.2258 14.049 20.8935 13.7725 21.5897 13.7725C22.2859 13.7725 22.9536 14.049 23.4458 14.5413C23.9381 15.0336 24.2147 15.7013 24.2147 16.3975C24.2147 17.0937 23.9381 17.7613 23.4458 18.2536C22.9536 18.7459 22.2859 19.0225 21.5897 19.0225ZM23.4647 16.3975C23.4647 15.9002 23.2671 15.4233 22.9155 15.0716C22.5639 14.72 22.087 14.5225 21.5897 14.5225C21.0924 14.5225 20.6155 14.72 20.2639 15.0716C19.9122 15.4233 19.7147 15.9002 19.7147 16.3975C19.7147 16.8947 19.9122 17.3717 20.2639 17.7233C20.6155 18.0749 21.0924 18.2725 21.5897 18.2725C22.087 18.2725 22.5639 18.0749 22.9155 17.7233C23.2671 17.3717 23.4647 16.8947 23.4647 16.3975Z" fill="#4C5D64"/>
</svg>
