<svg width="24" height="24" viewBox="0 0 27 24" fill="none" xmlns="http://www.w3.org/2000/svg">
<g id="diagram-project">
<path id="Primary" d="M6.375 2.25C7.41094 2.25 8.25 3.08906 8.25 4.125V7.875C8.25 8.91094 7.41094 9.75 6.375 9.75H2.625C1.58906 9.75 0.75 8.91094 0.75 7.875V4.125C0.75 3.08906 1.58906 2.25 2.625 2.25H6.375ZM2.625 1.5C1.17656 1.5 0 2.67656 0 4.125V7.875C0 9.32344 1.17656 10.5 2.625 10.5H6.375C6.93281 10.5 7.45313 10.3266 7.87969 10.0266L11.0719 14.4938C10.7156 14.9438 10.5047 15.5109 10.5047 16.125V19.875C10.5047 21.3234 11.6813 22.5 13.1297 22.5H16.8797C18.3281 22.5 19.5047 21.3234 19.5047 19.875V16.125C19.5047 14.6766 18.3281 13.5 16.8797 13.5H13.1297C12.5719 13.5 12.0516 13.6734 11.625 13.9734L8.43281 9.50625C8.78906 9.05625 9 8.48906 9 7.875V6.375H18V7.875C18 9.32344 19.1766 10.5 20.625 10.5H24.375C25.8234 10.5 27 9.32344 27 7.875V4.125C27 2.67656 25.8234 1.5 24.375 1.5H20.625C19.1766 1.5 18 2.67656 18 4.125V5.625H9V4.125C9 2.67656 7.82344 1.5 6.375 1.5H2.625ZM16.875 14.25C17.9109 14.25 18.75 15.0891 18.75 16.125V19.875C18.75 20.9109 17.9109 21.75 16.875 21.75H13.125C12.0891 21.75 11.25 20.9109 11.25 19.875V16.125C11.25 15.0891 12.0891 14.25 13.125 14.25H16.875ZM20.625 2.25H24.375C25.4109 2.25 26.25 3.08906 26.25 4.125V7.875C26.25 8.91094 25.4109 9.75 24.375 9.75H20.625C19.5891 9.75 18.75 8.91094 18.75 7.875V4.125C18.75 3.08906 19.5891 2.25 20.625 2.25Z" fill="#4C5D64"/>
</g>
</svg>
