<svg width="18" height="17" viewBox="0 0 18 17" fill="none" xmlns="http://www.w3.org/2000/svg">
<g id="Social Icons" clip-path="url(#clip0_531_2856)">
<path id="Vector" d="M8.80039 0C4.16124 0 0.400391 3.76085 0.400391 8.4C0.400391 12.3393 3.11258 15.6448 6.77129 16.5527V10.967H5.03921V8.4H6.77129V7.29389C6.77129 4.43486 8.06522 3.10968 10.8722 3.10968C11.4044 3.10968 12.3227 3.21418 12.6983 3.31834V5.64514C12.5001 5.6243 12.1557 5.61389 11.728 5.61389C10.3507 5.61389 9.81847 6.1357 9.81847 7.49213V8.4H12.5622L12.0908 10.967H9.81847V16.7385C13.9778 16.2362 17.2007 12.6948 17.2007 8.4C17.2004 3.76085 13.4395 0 8.80039 0Z" fill="#4C5D64"/>
</g>
<defs>
<clipPath id="clip0_531_2856">
<rect width="16.8" height="16.8" fill="white" transform="translate(0.400391)"/>
</clipPath>
</defs>
</svg>
