<svg width="24" height="24" viewBox="0 0 27 24" fill="none" xmlns="http://www.w3.org/2000/svg">
<g id="file-shield" clip-path="url(#clip0_532_5920)">
<path id="Primary" d="M15 23.25H3C1.75781 23.25 0.75 22.2422 0.75 21V3C0.75 1.75781 1.75781 0.75 3 0.75H9.56719C9.62813 0.75 9.68906 0.754688 9.75 0.759375V6.375C9.75 7.41094 10.5891 8.25 11.625 8.25H17.2406C17.25 8.31094 17.25 8.37187 17.25 8.43281V10.0078L18 9.70781V8.43281C18 7.8375 17.7609 7.26562 17.3391 6.84375L11.1609 0.660938C10.7391 0.239063 10.1672 0 9.57187 0H3C1.34531 0 0 1.34531 0 3V21C0 22.6547 1.34531 24 3 24H15C15.5109 24 15.9938 23.8734 16.4156 23.6437C16.2 23.4703 15.9891 23.2875 15.7922 23.1047C15.5437 23.1984 15.2766 23.25 15 23.25ZM16.9266 7.5H11.625C11.0016 7.5 10.5 6.99844 10.5 6.375V1.07344C10.5469 1.11094 10.5891 1.14844 10.6266 1.18594L16.8094 7.37344C16.8516 7.41563 16.8891 7.45781 16.9219 7.5H16.9266ZM14.4844 13.5281L19.875 11.3719V23.1234C15.3703 21.1125 14.25 16.6547 14.25 13.875C14.25 13.7203 14.3438 13.5844 14.4844 13.5281ZM26.25 13.875C26.25 16.6547 25.1297 21.1125 20.625 23.1234V11.3719L26.0156 13.5281C26.1562 13.5844 26.25 13.725 26.25 13.875ZM20.6672 10.5797C20.4 10.4719 20.1 10.4719 19.8328 10.5797L14.2078 12.8297C13.7812 13.0031 13.5 13.4156 13.5 13.875C13.5 16.8422 14.7141 21.7875 19.8187 23.9156C20.0953 24.0328 20.4094 24.0328 20.6859 23.9156C25.7859 21.7875 27 16.8422 27 13.875C27 13.4156 26.7188 13.0031 26.2922 12.8297L20.6672 10.5797Z" fill="#4C5D64"/>
</g>
<defs>
<clipPath id="clip0_532_5920">
<rect width="27" height="24" fill="white"/>
</clipPath>
</defs>
</svg>
