<svg width="27" height="24" viewBox="0 0 27 24" fill="none" xmlns="http://www.w3.org/2000/svg">
<g id="folder-tree" clip-path="url(#clip0_532_5924)">
<path id="Primary" d="M0.75 0.375C0.75 0.16875 0.58125 0 0.375 0C0.16875 0 0 0.16875 0 0.375V6V18C0 19.0359 0.839062 19.875 1.875 19.875H12V19.125H1.875C1.25156 19.125 0.75 18.6234 0.75 18V6.375H12V5.625H0.75V0.375ZM14.25 1.5C14.25 1.0875 14.5875 0.75 15 0.75H18.5016C18.6984 0.75 18.8906 0.829688 19.0312 0.970313L20.0484 1.9875C20.2172 2.15625 20.4469 2.25 20.6859 2.25H25.5C25.9125 2.25 26.25 2.5875 26.25 3V9C26.25 9.4125 25.9125 9.75 25.5 9.75H15C14.5875 9.75 14.25 9.4125 14.25 9V1.5ZM13.5 1.5V9C13.5 9.82969 14.1703 10.5 15 10.5H25.5C26.3297 10.5 27 9.82969 27 9V3C27 2.17031 26.3297 1.5 25.5 1.5H20.6859C20.6484 1.5 20.6063 1.48594 20.5781 1.45781L19.5656 0.440625C19.2844 0.159375 18.9047 0 18.5062 0H15C14.1703 0 13.5 0.670312 13.5 1.5ZM14.25 15C14.25 14.5875 14.5875 14.25 15 14.25H18.5016C18.6984 14.25 18.8906 14.3297 19.0312 14.4703L20.0484 15.4875C20.2172 15.6562 20.4469 15.75 20.6859 15.75H25.5C25.9125 15.75 26.25 16.0875 26.25 16.5V22.5C26.25 22.9125 25.9125 23.25 25.5 23.25H15C14.5875 23.25 14.25 22.9125 14.25 22.5V15ZM13.5 15V22.5C13.5 23.3297 14.1703 24 15 24H25.5C26.3297 24 27 23.3297 27 22.5V16.5C27 15.6703 26.3297 15 25.5 15H20.6859C20.6484 15 20.6063 14.9859 20.5781 14.9578L19.5609 13.9406C19.2797 13.6594 18.9 13.5 18.5016 13.5H15C14.1703 13.5 13.5 14.1703 13.5 15Z" fill="#4C5D64"/>
</g>
<defs>
<clipPath id="clip0_532_5924">
<rect width="27" height="24" fill="white"/>
</clipPath>
</defs>
</svg>
