<svg width="63" height="63" viewBox="0 0 63 63" fill="none" xmlns="http://www.w3.org/2000/svg">
<g id="Group 1010108761">
<path id="Vector" d="M0 32.2784L2.44363 34.6776V28.3242L0 30.7012V32.2784Z" fill="#22D96D"/>
<path id="Vector_2" d="M3.35352 35.5649L5.79715 37.9419V25.0352L3.35352 27.4343V35.5649Z" fill="#22D96D"/>
<path id="Vector_3" d="M6.73047 38.8304L8.15222 40.2522L9.1741 39.2525V21.7695L6.73047 24.1465V38.8304Z" fill="#22D96D"/>
<path id="Vector_4" d="M10.084 28.7456V38.3646V42.1189L10.7282 42.7409L11.3724 43.3629V39.7863V37.1206L12.5276 35.9876V18.4824L10.084 20.8816V28.7456Z" fill="#22D96D"/>
<path id="Vector_5" d="M13.4414 28.7463V35.0997V45.4073L14.0856 46.0294L14.7299 46.6514V39.787V33.8335L15.9073 32.7005V15.1953L13.4414 17.5945V28.7463Z" fill="#22D96D"/>
<path id="Vector_6" d="M16.8184 28.7462V31.8119V48.6728L17.4182 49.2726L17.4626 49.2504V49.2949L18.1068 49.9391V39.787V30.5456L19.262 29.4349V11.9297L16.8184 14.3067V28.7462Z" fill="#22D96D"/>
<path id="Vector_7" d="M23.5488 9.95123V25.2572V43.3177L24.1931 42.6735V55.8691L24.8373 56.4911V39.7856H24.8151V23.9909L25.9925 22.858V5.375L23.5488 7.75198V9.95123Z" fill="#22D96D"/>
<path id="Vector_8" d="M26.9023 9.9519V40.0306L27.5466 39.4086V59.1353L28.1908 59.7573V33.3218V20.726L29.346 19.5931V2.08789L26.9023 4.48708V9.9519Z" fill="#22D96D"/>
<path id="Vector_9" d="M30.2559 1.1996V9.9522V36.7654L30.9001 36.1211V62.4234L31.4777 62.9787L31.5443 62.9121V33.3221V17.5718L32.6995 18.7048V1.1996L31.4777 0L30.2559 1.1996Z" fill="#22D96D"/>
<path id="Vector_10" d="M33.6316 9.9519H33.6094V37.6537H33.6316L34.2758 38.2757V60.2683L34.92 59.624V33.3218H34.8978V20.8371L36.0752 21.9701V4.48708L33.6316 2.08789V9.9519Z" fill="#22D96D"/>
<path id="Vector_11" d="M36.9883 9.95123V40.9186V40.9408L37.6325 41.5628V56.9798L38.2767 56.3578V39.7856V24.1242L39.4319 25.2572V7.75198L36.9883 5.375V9.95123Z" fill="#22D96D"/>
<path id="Vector_12" d="M40.3438 9.95129V44.2064L41.0102 44.8506V53.6921L41.6544 53.0701V39.7857H41.6322V27.3899L42.7874 28.5228V11.0398L40.3438 8.64062V9.95129Z" fill="#22D96D"/>
<path id="Vector_13" d="M43.7195 28.7462H43.6973V47.4732L43.7195 47.4955L44.3637 48.1175V50.4278L45.0079 49.8058V39.787H44.9857V30.6789L46.1631 31.8119V14.3067L43.7195 11.9297V28.7462Z" fill="#22D96D"/>
<path id="Vector_14" d="M47.0742 28.7456V32.6998V47.7836L47.7184 47.1394L48.3627 46.5396V46.5173V39.7863V33.966L49.5178 35.099V17.5938L47.0742 15.2168V28.7456Z" fill="#22D96D"/>
<path id="Vector_15" d="M50.4277 35.9876H50.4499V44.4959L51.7384 43.2518V37.2539L52.8936 38.3646V20.8594L50.4277 18.4824V35.9876Z" fill="#22D96D"/>
<path id="Vector_16" d="M53.8027 39.2525L54.8024 40.2522L56.2464 38.8304V24.1465L53.8027 21.7695V39.2525Z" fill="#22D96D"/>
<path id="Vector_17" d="M57.1602 37.9419L59.6038 35.5649V27.4343L57.1602 25.0352V37.9419Z" fill="#22D96D"/>
<path id="Vector_18" d="M60.5371 28.3242V34.6776L62.9807 32.2784V30.7012L60.5371 28.3242Z" fill="#22D96D"/>
<path id="Vector_19" d="M20.1719 11.0398V28.5228V46.5834L20.8161 45.9614V52.5814L21.4603 53.2034V39.7857V27.2788L22.6155 26.1458V8.64062L21.2826 9.95129L20.1719 11.0398Z" fill="#22D96D"/>
</g>
</svg>
