<svg width="1864" height="1864" viewBox="0 0 1864 1864" fill="#22D96D" xmlns="http://www.w3.org/2000/svg">
<path d="M0.149086 46.4716L1.43135 186.231L184.786 2.87682L45.6672 0.953559L0.149086 46.4716Z" fill="#22D96D"/>
<path d="M2.05093 238.137L3.97424 377.256L376.453 4.77683L236.694 3.49465L2.05093 238.137Z" fill="#22D96D"/>
<path d="M5.28981 429.854L5.28988 511.914L63.6299 512.556L568.176 8.01L429.057 6.08668L5.28981 429.854Z" fill="#22D96D"/>
<path d="M393.149 235.602L115.553 513.198L7.20692 621.544L7.84799 658.087L8.48915 694.63L111.706 591.413L188.638 514.481L254.671 515.122L759.858 9.93504L620.098 8.65284L393.149 235.602Z" fill="#22D96D"/>
<path d="M489.948 332.39L306.594 515.745L9.12367 813.215L9.7647 849.758L10.4057 886.301L208.506 688.201L380.32 516.386L446.995 517.668L952.181 12.4816L811.781 10.5584L489.948 332.39Z" fill="#22D96D"/>
<path d="M587.413 429.86L498.942 518.332L12.3468 1004.93L12.3468 1039.55L14.2701 1040.19L12.988 1041.47L12.9879 1078.65L305.971 785.67L572.668 518.973L638.06 520.255L1143.25 15.0681L1004.13 13.1448L587.413 429.86Z" fill="#22D96D"/>
<path d="M1324 81.7111L882.286 523.429L361.072 1044.64L398.256 1044.64L17.4422 1425.46L18.0833 1462L500.19 979.892L499.549 979.251L955.371 523.429L1022.05 524.711L1526.59 20.1655L1387.47 18.2422L1324 81.7111Z" fill="#22D96D"/>
<path d="M1420.85 178.555L552.799 1046.6L589.342 1047.25L20.0456 1616.54L20.6866 1653.08L783.595 890.176L1147.1 526.672L1213.13 527.313L1718.32 22.1265L1578.56 20.8443L1420.85 178.555Z" fill="#22D96D"/>
<path d="M1770.24 22.7524L1517.65 275.346L743.838 1049.15L781.021 1049.15L21.9594 1808.22L22.6006 1840.91L26.447 1840.91L880.392 986.967L1334.93 532.427L1335.57 598.46L1840.76 93.2735L1840.12 23.3936L1770.24 22.7524Z" fill="#22D96D"/>
<path d="M1615.08 372.783L1614.44 372.142L814.985 1171.59L815.626 1172.23L816.267 1208.78L181.578 1843.47L218.762 1843.47L977.824 1084.4L977.183 1083.76L1337.48 723.465L1338.76 790.139L1843.31 285.594L1842.03 145.834L1615.08 372.783Z" fill="#22D96D"/>
<path d="M1711.91 469.62L818.22 1363.31L817.579 1363.95L818.22 1400.5L373.297 1845.42L409.84 1846.06L888.1 1367.8L1340.08 915.826L1340.72 981.859L1845.9 476.672L1843.98 337.554L1711.91 469.62Z" fill="#22D96D"/>
<path d="M1808.7 566.417L820.127 1554.99L820.769 1592.82L565.611 1847.98L602.153 1848.62L985.531 1465.24L984.89 1464.6L1342.62 1106.86L1343.26 1172.9L1847.81 668.352L1846.53 528.592L1808.7 566.417Z" fill="#22D96D"/>
<path d="M1363.76 1206.21L1363.12 1205.57L822.674 1746.01L822.674 1747.3L823.315 1783.84L756.64 1850.51L793.183 1851.15L1082.32 1562.02L1081.68 1561.38L1344.53 1298.53L1345.81 1365.2L1851 860.014L1849.07 720.896L1363.76 1206.21Z" fill="#22D96D"/>
<path d="M1460.61 1303.06L1346.49 1417.17L911.186 1852.48L948.37 1852.48L984.271 1853.76L984.912 1853.12L1179.17 1658.87L1347.13 1490.9L1347.77 1556.93L1852.96 1051.74L1851.04 912.625L1460.61 1303.06Z" fill="#22D96D"/>
<path d="M1348.39 1608.84L1349.03 1609.48L1103.49 1855.02L1176.57 1856.31L1349.67 1683.21L1350.95 1748.6L1856.14 1243.41L1853.58 1103.65L1348.39 1608.84Z" fill="#22D96D"/>
<path d="M1351.57 1800.5L1351.57 1858.19L1434.27 1858.84L1858.04 1435.07L1856.12 1295.95L1351.57 1800.5Z" fill="#22D96D"/>
<path d="M1486.25 1859.53L1625.36 1861.45L1860.01 1626.81L1858.72 1487.05L1486.25 1859.53Z" fill="#22D96D"/>
<path d="M1861.26 1679.35L1677.9 1862.7L1817.66 1863.99L1863.18 1818.47L1861.26 1679.35Z" fill="#22D96D"/>
<path d="M1195.17 15.7117L690.624 520.257L169.41 1041.47L205.953 1042.11L14.9047 1233.16L15.5459 1269.7L402.77 882.479L763.709 521.539L829.743 522.181L1334.93 16.9939L1258.64 16.3528L1195.17 15.7117Z" fill="#22D96D"/>
</svg>
