<svg width="1121" height="930" viewBox="0 0 1121 930" fill="none" xmlns="http://www.w3.org/2000/svg">
<path d="M359.998 584.905L376.397 601L376.401 278.016L360.002 293.963L359.998 584.905Z" fill="#22D96D"/>
<path d="M382.508 532.487L398.907 548.433V188.893L382.508 204.988V532.487Z" fill="#22D96D"/>
<path d="M405.176 303.498L414.717 313.036L421.575 306.329V189.042L405.176 204.988V303.498Z" fill="#22D96D"/>
<path d="M427.688 280.848V345.378V370.565L432.011 374.738L436.334 378.911V354.917V337.033L444.087 329.432V211.995L427.688 228.091V280.848Z" fill="#22D96D"/>
<path d="M450.195 181.909V224.532V293.683L454.519 297.856L458.842 302.028V255.978V216.037L466.744 208.437V91L450.195 107.095V181.909Z" fill="#22D96D"/>
<path d="M472.861 280.847V301.414V414.529L476.887 418.552L477.185 418.403V418.701L481.508 423.023V354.916V292.919L489.261 285.467V168.031L472.861 183.977V280.847Z" fill="#22D96D"/>
<path d="M518.025 87.7005V190.383V311.546L522.349 307.224V395.748L526.672 399.921V287.85H526.523V181.888L534.425 174.288V57L518.025 72.9464V87.7005Z" fill="#22D96D"/>
<path d="M540.545 154.767V356.555L544.868 352.382V484.722L549.192 488.895V311.548V227.047L556.944 219.446V102.01L540.545 118.105V154.767Z" fill="#22D96D"/>
<path d="M563.057 8.0477V66.7661V246.647L567.38 242.325V418.778L571.256 422.504L571.704 422.057V223.547V117.884L579.456 125.484V8.0477L571.256 0L563.057 8.0477Z" fill="#22D96D"/>
<path d="M585.714 109.757H585.564V295.599H585.714L590.037 299.772V447.313L594.36 442.991V266.538H594.211V182.783L602.113 190.383V73.0954L585.714 57V109.757Z" fill="#22D96D"/>
<path d="M608.232 154.767V362.517V362.666L612.556 366.839V470.267L616.879 466.094V354.916V249.849L624.632 257.45V140.013L608.232 124.067V154.767Z" fill="#22D96D"/>
<path d="M630.742 186.793V416.599L635.215 420.921V480.236L639.538 476.063V386.942H639.389V303.782L647.142 311.383V194.095L630.742 178V186.793Z" fill="#22D96D"/>
<path d="M653.397 280.847H653.248V406.481L653.397 406.63L657.721 410.803V426.302L662.044 422.129V354.916H661.895V293.813L669.797 301.414V183.977L653.397 168.031V280.847Z" fill="#22D96D"/>
<path d="M675.918 168.771V195.299V296.491L680.241 292.169L684.565 288.145V287.996V242.84V203.793L692.317 211.394V93.9573L675.918 78.011V168.771Z" fill="#22D96D"/>
<path d="M698.426 329.432H698.575V386.511L707.222 378.165V337.927L714.974 345.378V227.942L698.426 211.995V329.432Z" fill="#22D96D"/>
<path d="M721.078 606.349L727.787 613.056L737.477 603.518L737.478 327.053L721.079 311.107L721.078 606.349Z" fill="#22D96D"/>
<path d="M743.602 499.54L760.001 483.594V260.095L743.602 244V499.54Z" fill="#22D96D"/>
<path d="M495.371 117.061V234.348V355.511L499.695 351.338V395.749L504.018 399.922V309.907V226.003L511.77 218.402V100.965L502.825 109.758L495.371 117.061Z" fill="#22D96D"/>
<path d="M766.147 341.855H765.998V527.697H766.147L770.471 531.87V679.411L774.794 675.089V498.636H774.645V414.88L782.546 422.481V305.193L766.147 289.097V341.855Z" fill="#22D96D"/>
<path d="M788.666 386.865V594.614V594.763L792.99 598.936V702.364L797.313 698.191V587.014V481.947L805.065 489.547V372.11L788.666 356.164V386.865Z" fill="#22D96D"/>
<path d="M811.176 255.9V485.706L815.648 490.028V549.343L819.972 545.17V456.049H819.823V372.889L827.575 380.49V263.202L811.176 247.107V255.9Z" fill="#22D96D"/>
<path d="M833.831 445.878H833.682V571.512L833.831 571.661L838.154 575.834V591.333L842.478 587.16V519.947H842.329V458.844L850.23 466.445V349.008L833.831 333.062V445.878Z" fill="#22D96D"/>
<path d="M856.352 512.945V539.473V640.665L860.675 636.343L864.999 632.319V632.17V587.014V547.967L872.751 555.568V438.131L856.352 422.185V512.945Z" fill="#22D96D"/>
<path d="M878.859 430.564H879.008V487.643L887.655 479.298V439.059L895.408 446.511V329.074L878.859 313.128V430.564Z" fill="#22D96D"/>
<path d="M901.512 761.391L908.221 768.097L917.911 758.559L917.911 482.095L901.512 466.149L901.512 761.391Z" fill="#22D96D"/>
<path d="M924.035 557.525L940.434 541.579V318.08L924.035 301.985V557.525Z" fill="#22D96D"/>
<path d="M946.147 392.69H945.998V578.532H946.147L950.471 582.705V730.246L954.794 725.925V549.471H954.645V465.716L962.546 473.316V356.029L946.147 339.933V392.69Z" fill="#22D96D"/>
<path d="M968.666 395.681V603.431V603.58L972.99 607.753V711.181L977.313 707.008V595.831V490.763L985.065 498.364V380.927L968.666 364.981V395.681Z" fill="#22D96D"/>
<path d="M991.176 392.691V622.498L995.648 626.82V686.134L999.972 681.961V592.84H999.823V509.681L1007.58 517.282V399.994L991.176 383.898V392.691Z" fill="#22D96D"/>
<path d="M1013.83 518.771H1013.68V644.405L1013.83 644.554L1018.15 648.727V664.226L1022.48 660.053V592.84H1022.33V531.737L1030.23 539.337V421.901L1013.83 405.954V518.771Z" fill="#22D96D"/>
<path d="M1036.35 566.771V593.299V694.491L1040.68 690.169L1045 686.145V685.996V640.84V601.794L1052.75 609.394V491.958L1036.35 476.011V566.771Z" fill="#22D96D"/>
<path d="M1058.86 436.391H1059.01V493.47L1067.66 485.124V444.885L1075.41 452.337V334.9L1058.86 318.954V436.391Z" fill="#22D96D"/>
<path d="M1081.51 591.242L1088.22 597.949L1097.91 588.411L1097.91 311.946L1081.51 296L1081.51 591.242Z" fill="#22D96D"/>
<path d="M1104.04 819.481L1120.43 803.535V580.036L1104.04 563.941V819.481Z" fill="#22D96D"/>
<path d="M354.286 241.681H354.436V427.523H354.286L349.963 431.696V579.237L345.64 574.915V398.462H345.789V314.706L337.887 322.307V205.019L354.286 188.924V241.681Z" fill="#22D96D"/>
<path d="M331.768 402.7V610.45V610.599L327.444 614.772V718.2L323.121 714.027V602.85V497.783L315.368 505.383V387.946L331.768 372V402.7Z" fill="#22D96D"/>
<path d="M309.258 308.749V538.555L304.785 542.877V602.191L300.462 598.019V508.898H300.611V425.738L292.858 433.339V316.051L309.258 299.956V308.749Z" fill="#22D96D"/>
<path d="M286.603 434.828H286.752V560.462L286.603 560.611L282.279 564.784V580.283L277.956 576.11V508.897H278.105V447.794L270.203 455.395V337.958L286.603 322.012V434.828Z" fill="#22D96D"/>
<path d="M264.082 479.838V506.366V607.558L259.759 603.236L255.435 599.212V599.063V553.907V514.86L247.683 522.461V405.024L264.082 389.078V479.838Z" fill="#22D96D"/>
<path d="M241.574 483.413H241.425V540.492L232.778 532.147V491.908L225.026 499.36V381.923L241.574 365.977V483.413Z" fill="#22D96D"/>
<path d="M218.922 777.227L212.213 783.933L202.523 774.395L202.522 497.931L218.921 481.985L218.922 777.227Z" fill="#22D96D"/>
<path d="M196.398 643.424L179.999 627.477V403.979L196.398 387.884V643.424Z" fill="#22D96D"/>
<path d="M174.286 410.635H174.436V596.477H174.286L169.963 600.65V748.191L165.64 743.869V567.416H165.789V483.66L157.887 491.261V373.973L174.286 357.877V410.635Z" fill="#22D96D"/>
<path d="M151.768 388.578V596.328V596.477L147.444 600.65V704.077L143.121 699.905V588.727V483.66L135.368 491.261V373.824L151.768 357.877V388.578Z" fill="#22D96D"/>
<path d="M129.258 406.702V636.509L124.785 640.831V700.145L120.462 695.972V606.851H120.611V523.692L112.858 531.293V414.005L129.258 397.909V406.702Z" fill="#22D96D"/>
<path d="M106.603 401.817H106.752V527.45L106.603 527.599L102.279 531.772V547.271L97.9559 543.099V475.885H98.105V414.783L90.2035 422.383V304.946L106.603 289V401.817Z" fill="#22D96D"/>
<path d="M84.082 530.696V557.224V658.416L79.7586 654.094L75.4351 650.07V649.921V604.765V565.719L67.6827 573.319V455.882L84.082 439.936V530.696Z" fill="#22D96D"/>
<path d="M61.5742 624.291H61.4252V681.37L52.7782 673.024V632.785L45.0258 640.237V522.8L61.5742 506.854V624.291Z" fill="#22D96D"/>
<path d="M38.9219 693.186L32.213 699.893L22.5225 690.355L22.5221 413.89L38.9214 397.944L38.9219 693.186Z" fill="#22D96D"/>
<path d="M16.3984 761.349L-0.000900269 745.402V521.904L16.3984 505.808V761.349Z" fill="#22D96D"/>
</svg>
