<svg width="17" height="17" viewBox="0 0 17 17" fill="none" xmlns="http://www.w3.org/2000/svg">
<g id="Social Icons" clip-path="url(#clip0_531_2857)">
<path id="Vector" d="M8.59922 1.51266C10.8436 1.51266 11.1094 1.5225 11.992 1.56187C12.8123 1.59797 13.2553 1.73578 13.5506 1.85063C13.9411 2.00156 14.2233 2.18531 14.5153 2.47734C14.8106 2.77266 14.9911 3.05156 15.142 3.44203C15.2569 3.73734 15.3947 4.18359 15.4308 5.00062C15.4702 5.88656 15.48 6.15234 15.48 8.39344C15.48 10.6378 15.4702 10.9036 15.4308 11.7863C15.3947 12.6066 15.2569 13.0495 15.142 13.3448C14.9911 13.7353 14.8073 14.0175 14.5153 14.3095C14.22 14.6048 13.9411 14.7853 13.5506 14.9363C13.2553 15.0511 12.8091 15.1889 11.992 15.225C11.1061 15.2644 10.8403 15.2742 8.59922 15.2742C6.35484 15.2742 6.08906 15.2644 5.20641 15.225C4.38609 15.1889 3.94313 15.0511 3.64781 14.9363C3.25734 14.7853 2.97516 14.6016 2.68313 14.3095C2.38781 14.0142 2.20734 13.7353 2.05641 13.3448C1.94156 13.0495 1.80375 12.6033 1.76766 11.7863C1.72828 10.9003 1.71844 10.6345 1.71844 8.39344C1.71844 6.14906 1.72828 5.88328 1.76766 5.00062C1.80375 4.18031 1.94156 3.73734 2.05641 3.44203C2.20734 3.05156 2.39109 2.76937 2.68313 2.47734C2.97844 2.18203 3.25734 2.00156 3.64781 1.85063C3.94313 1.73578 4.38938 1.59797 5.20641 1.56187C6.08906 1.5225 6.35484 1.51266 8.59922 1.51266ZM8.59922 0C6.31875 0 6.03328 0.00984375 5.1375 0.0492187C4.245 0.0885938 3.63141 0.232969 3.09984 0.439687C2.54531 0.65625 2.07609 0.941719 1.61016 1.41094C1.14094 1.87687 0.855469 2.34609 0.638906 2.89734C0.432187 3.43219 0.287813 4.0425 0.248438 4.935C0.209063 5.83406 0.199219 6.11953 0.199219 8.4C0.199219 10.6805 0.209063 10.9659 0.248438 11.8617C0.287813 12.7542 0.432187 13.3678 0.638906 13.8994C0.855469 14.4539 1.14094 14.9231 1.61016 15.3891C2.07609 15.855 2.54531 16.1437 3.09656 16.357C3.63141 16.5637 4.24172 16.7081 5.13422 16.7475C6.03 16.7869 6.31547 16.7967 8.59594 16.7967C10.8764 16.7967 11.1619 16.7869 12.0577 16.7475C12.9502 16.7081 13.5638 16.5637 14.0953 16.357C14.6466 16.1437 15.1158 15.855 15.5817 15.3891C16.0477 14.9231 16.3364 14.4539 16.5497 13.9027C16.7564 13.3678 16.9008 12.7575 16.9402 11.865C16.9795 10.9692 16.9894 10.6838 16.9894 8.40328C16.9894 6.12281 16.9795 5.83734 16.9402 4.94156C16.9008 4.04906 16.7564 3.43547 16.5497 2.90391C16.343 2.34609 16.0575 1.87687 15.5883 1.41094C15.1223 0.945 14.6531 0.65625 14.1019 0.442969C13.567 0.23625 12.9567 0.091875 12.0642 0.0525C11.1652 0.00984375 10.8797 0 8.59922 0Z" fill="#4C5D64"/>
<path id="Vector_2" d="M8.6 4.08594C6.21781 4.08594 4.28516 6.01859 4.28516 8.40078C4.28516 10.783 6.21781 12.7156 8.6 12.7156C10.9822 12.7156 12.9148 10.783 12.9148 8.40078C12.9148 6.01859 10.9822 4.08594 8.6 4.08594ZM8.6 11.1997C7.05453 11.1997 5.80109 9.94625 5.80109 8.40078C5.80109 6.85531 7.05453 5.60187 8.6 5.60187C10.1455 5.60187 11.3989 6.85531 11.3989 8.40078C11.3989 9.94625 10.1455 11.1997 8.6 11.1997Z" fill="#4C5D64"/>
<path id="Vector_3" d="M14.0928 3.91555C14.0928 4.47336 13.64 4.92289 13.0855 4.92289C12.5277 4.92289 12.0781 4.47008 12.0781 3.91555C12.0781 3.35774 12.5309 2.9082 13.0855 2.9082C13.64 2.9082 14.0928 3.36102 14.0928 3.91555Z" fill="#4C5D64"/>
</g>
<defs>
<clipPath id="clip0_531_2857">
<rect width="16.8" height="16.8" fill="white" transform="translate(0.199219)"/>
</clipPath>
</defs>
</svg>
