<svg width="30" height="24" viewBox="0 0 30 24" fill="none" xmlns="http://www.w3.org/2000/svg">
<g id="laptop-mobile" clip-path="url(#clip0_531_3375)">
<path id="Primary" d="M6 0.75H21C22.2422 0.75 23.25 1.75781 23.25 3V4.5H24V3C24 1.34531 22.6547 0 21 0H6C4.34531 0 3 1.34531 3 3V13.5H0.9C0.403125 13.5 0 13.9031 0 14.4C0 16.3875 1.6125 18 3.6 18H16.5V17.25H3.6C2.025 17.25 0.75 15.975 0.75 14.4C0.75 14.3156 0.815625 14.25 0.9 14.25H3H3.75H16.5V13.5H3.75V3C3.75 1.75781 4.75781 0.75 6 0.75ZM29.25 21.75C29.25 22.5797 28.5797 23.25 27.75 23.25H20.25C19.4203 23.25 18.75 22.5797 18.75 21.75V8.25C18.75 7.42031 19.4203 6.75 20.25 6.75H27.75C28.5797 6.75 29.25 7.42031 29.25 8.25V21.75ZM20.25 24H27.75C28.9922 24 30 22.9922 30 21.75V8.25C30 7.00781 28.9922 6 27.75 6H20.25C19.0078 6 18 7.00781 18 8.25V21.75C18 22.9922 19.0078 24 20.25 24Z" fill="#4C5D64"/>
</g>
<defs>
<clipPath id="clip0_531_3375">
<rect width="30" height="24" fill="white"/>
</clipPath>
</defs>
</svg>
