<svg width="17" height="17" viewBox="0 0 17 17" fill="none" xmlns="http://www.w3.org/2000/svg">
<g id="Social Icons" clip-path="url(#clip0_531_2853)">
<path id="Vector" d="M15.5564 0H1.24031C0.554531 0 0 0.541406 0 1.21078V15.5859C0 16.2553 0.554531 16.8 1.24031 16.8H15.5564C16.2422 16.8 16.8 16.2553 16.8 15.5892V1.21078C16.8 0.541406 16.2422 0 15.5564 0ZM4.98422 14.3161H2.49047V6.29672H4.98422V14.3161ZM3.73734 5.20406C2.93672 5.20406 2.29031 4.55766 2.29031 3.76031C2.29031 2.96297 2.93672 2.31656 3.73734 2.31656C4.53469 2.31656 5.18109 2.96297 5.18109 3.76031C5.18109 4.55437 4.53469 5.20406 3.73734 5.20406ZM14.3161 14.3161H11.8256V10.418C11.8256 9.48938 11.8092 8.29172 10.5295 8.29172C9.23344 8.29172 9.03656 9.30562 9.03656 10.3523V14.3161H6.54938V6.29672H8.93812V7.39266H8.97094C9.30234 6.76266 10.1161 6.09656 11.3269 6.09656C13.8502 6.09656 14.3161 7.75688 14.3161 9.91594V14.3161Z" fill="#4C5D64"/>
</g>
<defs>
<clipPath id="clip0_531_2853">
<rect width="16.8" height="16.8" fill="white"/>
</clipPath>
</defs>
</svg>
