<svg width="18" height="24" viewBox="0 0 18 24" fill="none" xmlns="http://www.w3.org/2000/svg">
<g id="Group 1010108785">
<path id="Primary" d="M3 23.25C1.75781 23.25 0.75 22.2422 0.75 21V3C0.75 1.75781 1.75781 0.75 3 0.75H9.56719C9.62813 0.75 9.68906 0.754688 9.75 0.759375V6.375C9.75 7.41094 10.5891 8.25 11.625 8.25H17.2406C17.25 8.31094 17.25 8.37187 17.25 8.43281V21C17.25 22.2422 16.2422 23.25 15 23.25H3ZM16.8094 7.37344C16.8516 7.41563 16.8891 7.45781 16.9219 7.5H11.625C11.0016 7.5 10.5 6.99844 10.5 6.375V1.07344C10.5469 1.11094 10.5891 1.14844 10.6266 1.18594L16.8094 7.37344ZM3 0C1.34531 0 0 1.34531 0 3V21C0 22.6547 1.34531 24 3 24H15C16.6547 24 18 22.6547 18 21V8.43281C18 7.8375 17.7609 7.26562 17.3391 6.84375L11.1609 0.660938C10.7391 0.239063 10.1672 0 9.57187 0H3ZM3.375 3C3.16875 3 3 3.16875 3 3.375C3 3.58125 3.16875 3.75 3.375 3.75H7.125C7.33125 3.75 7.5 3.58125 7.5 3.375C7.5 3.16875 7.33125 3 7.125 3H3.375ZM3.375 6C3.16875 6 3 6.16875 3 6.375C3 6.58125 3.16875 6.75 3.375 6.75H7.125C7.33125 6.75 7.5 6.58125 7.5 6.375C7.5 6.16875 7.33125 6 7.125 6H3.375ZM5.8875 14.7094C5.90156 14.6578 5.94844 14.625 6 14.625C6.05156 14.625 6.09844 14.6578 6.1125 14.7094L7.08281 18.2672C7.1625 18.5531 7.42031 18.75 7.71563 18.75C7.95 18.75 8.16562 18.6234 8.28281 18.4219L9.42188 16.425C9.52969 16.2422 9.72656 16.125 9.9375 16.125C10.1484 16.125 10.35 16.2375 10.4531 16.425L11.2406 17.8078C11.5734 18.3937 12.1969 18.7547 12.8672 18.7547H14.9953C15.2016 18.7547 15.3703 18.5859 15.3703 18.3797C15.3703 18.1734 15.2016 18.0047 14.9953 18.0047H12.8672C12.4641 18.0047 12.0891 17.7891 11.8922 17.4375L11.1047 16.0547C10.8656 15.6375 10.4203 15.375 9.9375 15.375C9.45469 15.375 9.00938 15.6328 8.77031 16.0547L7.74375 17.85L6.83438 14.5172C6.73125 14.1422 6.38906 13.8797 6 13.8797C5.61094 13.8797 5.26875 14.1422 5.16562 14.5172L4.43906 17.1703C4.30781 17.6625 3.8625 18 3.35625 18H3C2.79375 18 2.625 18.1688 2.625 18.375C2.625 18.5812 2.79375 18.75 3 18.75H3.35625C4.2 18.75 4.94062 18.1828 5.16562 17.3672L5.89219 14.7094H5.8875Z" fill="#4C5D64"/>
</g>
</svg>
