<svg width="734" height="734" viewBox="0 0 734 734" fill="none" xmlns="http://www.w3.org/2000/svg">
<path d="M0 375.735L28.4552 403.663V329.706L0 357.375V375.735Z" fill="black"/>
<path d="M39.0508 414.006L67.506 441.675V291.434L39.0508 319.361V414.006Z" fill="black"/>
<path d="M78.3828 452.018L94.9386 468.567L106.838 456.931V253.42L78.3828 281.089V452.018Z" fill="black"/>
<path d="M117.445 334.619V446.589V490.291L124.947 497.531L132.449 504.772V463.139V432.108L145.901 418.92V215.15L117.445 243.078V334.619Z" fill="black"/>
<path d="M156.5 334.617V408.574V528.56L164.002 535.801L171.504 543.041V463.137V393.835L185.214 380.646V176.877L156.5 204.805V334.617Z" fill="black"/>
<path d="M195.828 334.617V370.303V566.573L202.813 573.555L203.33 573.297V573.814L210.832 581.313V463.137V355.563L224.283 342.634V138.864L195.828 166.533V334.617Z" fill="black"/>
<path d="M274.195 115.851V294.02V504.254L281.697 496.755V650.358L289.199 657.598V463.138H288.94V279.28L302.651 266.092V62.5811L274.195 90.2503V115.851Z" fill="black"/>
<path d="M313.27 115.851V465.982L320.771 458.742V688.37L328.273 695.611V387.888V241.267L341.725 228.079V24.3096L313.27 52.2374V115.851Z" fill="black"/>
<path d="M352.328 13.9639V115.849V427.967L359.83 420.468V726.64L366.556 733.104L367.332 732.329V387.886V204.545L380.783 217.733V13.9639L366.556 0L352.328 13.9639Z" fill="black"/>
<path d="M391.642 115.851H391.383V438.313H391.642L399.143 445.554V701.559L406.645 694.059V387.888H406.386V242.56L420.097 255.748V52.2374L391.642 24.3096V115.851Z" fill="black"/>
<path d="M430.715 115.851V476.326V476.585L438.217 483.825V663.287L445.719 656.047V463.138V280.832L459.17 294.02V90.2503L430.715 62.5811V115.851Z" fill="black"/>
<path d="M469.773 115.852V514.598L477.534 522.097V625.017L485.036 617.776V463.139H484.777V318.845L498.229 332.033V128.523L469.773 100.595V115.852Z" fill="black"/>
<path d="M509.083 334.617H508.824V552.609L509.083 552.868L516.585 560.108V587.002L524.087 579.761V463.137H523.828V357.115L537.538 370.303V166.533L509.083 138.864V334.617Z" fill="black"/>
<path d="M548.16 334.618V380.648V556.231L555.662 548.731L563.164 541.749V541.491V463.138V395.387L576.615 408.575V204.806L548.16 177.137V334.618Z" fill="black"/>
<path d="M587.215 418.92H587.473V517.96L602.477 503.479V433.66L615.929 446.589V242.82L587.215 215.15V418.92Z" fill="black"/>
<path d="M626.52 456.931L638.16 468.567L654.975 452.018V281.089L626.52 253.42V456.931Z" fill="black"/>
<path d="M665.602 441.675L694.057 414.006V319.361L665.602 291.434V441.675Z" fill="black"/>
<path d="M704.91 329.706V403.663L733.365 375.735V357.375L704.91 329.706Z" fill="black"/>
<path d="M234.887 128.523V332.033V542.268L242.389 535.027V612.087L249.89 619.328V463.139V317.552L263.342 304.364V100.595L247.821 115.852L234.887 128.523Z" fill="black"/>
</svg>
