<svg width="235" height="53" viewBox="0 0 235 53" fill="none" xmlns="http://www.w3.org/2000/svg">
<g id="logo">
<g id="Group 9072">
<path id="Vector" d="M143.613 16.6518H148.358V30.8159C148.358 33.4461 146.226 35.561 143.613 35.561V16.634V16.6518Z" fill="#22D96D"/>
<path id="Vector_2" d="M89.7109 35.7742V16.634H116.671V21.3791H94.847V26.2663H115.302V30.9048H94.847V35.792H116.671V40.5371H92.5189L89.7109 35.7565V35.7742Z" fill="#22D96D"/>
<path id="Vector_3" d="M58.916 40.5373V31.8113L80.2245 21.3793L58.916 21.4859V16.6165H75.4794C78.1096 16.6165 80.2245 18.7491 80.2245 21.3615L85.8404 18.8557V25.2891L64.0698 35.81L85.8404 35.7389V40.5195H58.916V40.5373Z" fill="#22D96D"/>
<path id="Vector_4" d="M175.551 16.634H202.475C202.475 19.282 200.325 21.4146 197.695 21.4146H191.723V40.5548H186.605V21.4146H180.349C177.701 21.4146 175.569 19.2643 175.569 16.634H175.551Z" fill="#22D96D"/>
<path id="Vector_5" d="M164.515 35.7745V21.4327H170.77V16.6343H164.515H159.396H153.141V21.4327H159.396V35.7745H153.141V40.5551H159.396H164.515H170.77V35.7745H164.515Z" fill="#22D96D"/>
<path id="Vector_6" d="M131.084 16.634H126.232L121.451 19.442V40.5548H126.196V21.7701H131.084V16.634Z" fill="#22D96D"/>
<path id="Vector_7" d="M146.472 40.5729H140.146L137.302 35.579L127.688 18.7669V16.6343H132.788L143.611 35.579L146.472 40.5729Z" fill="#22D96D"/>
<path id="Vector_8" d="M93.9959 1.47506H93.1961V1.19071C93.1961 0.977448 93.0184 0.79973 92.8051 0.79973H88.0423C87.829 0.79973 87.6513 0.977448 87.6513 1.19071V2.79017C87.6513 3.00343 87.829 3.16338 88.0423 3.16338H92.8051C93.4627 3.16338 93.9959 3.69653 93.9959 4.35409V5.95355C93.9959 6.6111 93.4627 7.14426 92.8051 7.14426H88.0423C87.3847 7.14426 86.8516 6.6111 86.8516 5.95355V5.6692H87.6513V5.95355C87.6513 6.16681 87.829 6.34453 88.0423 6.34453H92.8051C93.0184 6.34453 93.1961 6.16681 93.1961 5.95355V4.35409C93.1961 4.14082 93.0184 3.98088 92.8051 3.98088H88.0423C87.3847 3.98088 86.8516 3.44773 86.8516 2.79017V1.19071C86.8516 0.533153 87.3847 0 88.0423 0H92.8051C93.4627 0 93.9959 0.533153 93.9959 1.19071V1.47506Z" fill="#22D96D"/>
<path id="Vector_9" d="M111.02 0.79973H105.298V3.16338H109.883V3.98088H105.298V6.34453H111.02V7.14426H104.498V0H111.02V0.79973Z" fill="#22D96D"/>
<path id="Vector_10" d="M122.697 0.79973C122.483 0.79973 122.306 0.977448 122.306 1.19071V5.95355C122.306 6.16681 122.483 6.34453 122.697 6.34453H128.632V7.14426H122.697C122.039 7.14426 121.506 6.6111 121.506 5.95355V1.19071C121.506 0.533153 122.039 0 122.697 0H128.632V0.79973H122.697Z" fill="#22D96D"/>
<path id="Vector_11" d="M145.407 0H146.207V5.95355C146.207 6.6111 145.674 7.14426 145.016 7.14426H140.253C139.596 7.14426 139.062 6.6111 139.062 5.95355V0H139.862V5.95355C139.862 6.16681 140.04 6.34453 140.253 6.34453H145.016C145.229 6.34453 145.407 6.16681 145.407 5.95355V0Z" fill="#22D96D"/>
<path id="Vector_12" d="M163.855 3.28778C163.855 3.94534 163.322 4.47849 162.665 4.47849H161.58L163.82 7.14426H162.753L160.514 4.47849H157.902C157.795 4.47849 157.671 4.46072 157.511 4.44295V7.14426H156.711V0H162.665C163.322 0 163.855 0.533153 163.855 1.19071V3.28778ZM162.665 3.67876C162.878 3.67876 163.038 3.51881 163.038 3.30555V1.20848C163.038 0.99522 162.878 0.817502 162.665 0.817502H157.902C157.688 0.817502 157.511 0.99522 157.511 1.20848V3.30555C157.511 3.51881 157.688 3.67876 157.902 3.67876H162.665Z" fill="#22D96D"/>
<path id="Vector_13" d="M174.342 0H175.142V7.14426H174.342V0Z" fill="#22D96D"/>
<path id="Vector_14" d="M192.719 0V0.79973H189.555V7.14426H188.755V0.79973H185.574V0H192.719Z" fill="#22D96D"/>
<path id="Vector_15" d="M209.887 0L206.599 4.46072V7.14426H205.8V4.46072C204.733 3.00343 203.596 1.45729 202.512 0H203.436L206.208 3.50104C207.079 2.38142 208.074 1.11962 208.945 0H209.887Z" fill="#22D96D"/>
<path id="Vector_16" d="M212.376 26.2841V25.6443V16.634H207.258V40.5548H212.376V35.7387V30.887V26.2841Z" fill="#22D96D"/>
<path id="Vector_17" d="M229.043 16.634V25.6443V26.2841V30.887V35.7387V40.5548H234.179V16.634H229.043Z" fill="#22D96D"/>
<path id="Vector_18" d="M229.062 30.8875C228.991 28.3284 226.893 26.2668 224.317 26.2668H210.152V30.8875H229.062Z" fill="#22D96D"/>
<path id="Vector_19" d="M0 28.2393L1.9549 30.1587V25.0759L0 26.9775V28.2393Z" fill="#22D96D"/>
<path id="Vector_20" d="M2.68164 30.8696L4.63654 32.7712V22.4458L2.68164 24.3652V30.8696Z" fill="#22D96D"/>
<path id="Vector_21" d="M5.38281 33.4817L6.52021 34.6191L7.33772 33.8194V19.833L5.38281 21.7346V33.4817Z" fill="#22D96D"/>
<path id="Vector_22" d="M8.06641 25.4137V33.1089V36.1123L8.58179 36.6099L9.09717 37.1075V34.2463V32.1136L10.0213 31.2073V17.2031L8.06641 19.1225V25.4137Z" fill="#22D96D"/>
<path id="Vector_23" d="M10.7539 25.4135V30.4963V38.7424L11.2693 39.24L11.7847 39.7376V34.2461V29.4833L12.7266 28.5769V14.5728L10.7539 16.4921V25.4135Z" fill="#22D96D"/>
<path id="Vector_24" d="M13.4531 25.4134V27.8659V41.3547L13.933 41.8346L13.9685 41.8168V41.8523L14.4839 42.3677V34.246V26.853L15.408 25.9644V11.9602L13.4531 13.8618V25.4134Z" fill="#22D96D"/>
<path id="Vector_25" d="M18.8398 10.3788V22.6235V37.072L19.3552 36.5566V47.113L19.8706 47.6106V34.2463H19.8528V21.6105L20.7947 20.7042V6.71777L18.8398 8.61935V10.3788Z" fill="#22D96D"/>
<path id="Vector_26" d="M21.5215 10.3789V34.4418L22.0369 33.9442V49.7256L22.5523 50.2232V29.0748V18.9982L23.4764 18.0918V4.08765L21.5215 6.007V10.3789Z" fill="#22D96D"/>
<path id="Vector_27" d="M24.2031 3.37667V10.3787V31.8293L24.7185 31.3139V52.3557L25.1806 52.8L25.2339 52.7467V29.0747V16.4745L26.158 17.3808V3.37667L25.1806 2.41699L24.2031 3.37667Z" fill="#22D96D"/>
<path id="Vector_28" d="M26.9045 10.3789H26.8867V32.5403H26.9045L27.4199 33.0379V50.6319L27.9353 50.1166V29.0748H27.9175V19.087L28.8594 19.9934V6.007L26.9045 4.08765V10.3789Z" fill="#22D96D"/>
<path id="Vector_29" d="M29.5898 10.3788V35.1526V35.1704L30.1052 35.668V48.0016L30.6206 47.504V34.2463V21.7172L31.5447 22.6235V8.61935L29.5898 6.71777V10.3788Z" fill="#22D96D"/>
<path id="Vector_30" d="M32.2734 10.3789V37.7829L32.8066 38.2983V45.3715L33.322 44.8739V34.2464H33.3042V24.3297L34.2283 25.2361V11.2497L32.2734 9.33032V10.3789Z" fill="#22D96D"/>
<path id="Vector_31" d="M34.9748 25.4134H34.957V40.3951L34.9748 40.4128L35.4902 40.9104V42.7587L36.0056 42.2611V34.246H35.9878V26.9596L36.9297 27.8659V13.8618L34.9748 11.9602V25.4134Z" fill="#22D96D"/>
<path id="Vector_32" d="M37.6602 25.4136V28.577V40.644L38.1755 40.1286L38.6909 39.6488V39.631V34.2462V29.59L39.6151 30.4963V16.4922L37.6602 14.5906V25.4136Z" fill="#22D96D"/>
<path id="Vector_33" d="M40.3418 31.2073H40.3596V38.0139L41.3903 37.0187V32.2203L42.3145 33.1089V19.1047L40.3418 17.2031V31.2073Z" fill="#22D96D"/>
<path id="Vector_34" d="M43.043 33.8194L43.8427 34.6191L44.9979 33.4817V21.7346L43.043 19.833V33.8194Z" fill="#22D96D"/>
<path id="Vector_35" d="M45.7266 32.7712L47.6815 30.8696V24.3652L45.7266 22.4458V32.7712Z" fill="#22D96D"/>
<path id="Vector_36" d="M48.4297 25.0759V30.1587L50.3846 28.2393V26.9775L48.4297 25.0759Z" fill="#22D96D"/>
<path id="Vector_37" d="M16.1367 11.2497V25.2361V39.6845L16.6521 39.1869V44.4829L17.1675 44.9805V34.2464V24.2408L18.0916 23.3345V9.33032L17.0253 10.3789L16.1367 11.2497Z" fill="#22D96D"/>
</g>
</g>
</svg>
