<svg width="24" height="24" viewBox="0 0 24 24" fill="none" xmlns="http://www.w3.org/2000/svg">
<path id="Primary" d="M8.25 19.501C8.25 19.0885 7.9125 18.751 7.5 18.751H3C1.75781 18.751 0.75 17.7432 0.75 16.501V3.00098C0.75 1.75879 1.75781 0.750977 3 0.750977H21C22.2422 0.750977 23.25 1.75879 23.25 3.00098V16.501C23.25 17.7432 22.2422 18.751 21 18.751H14.4984C14.3344 18.751 14.1797 18.8025 14.0484 18.901L8.25 23.251V19.501ZM3 0.000976562C1.34531 0.000976562 0 1.34629 0 3.00098V16.501C0 18.1557 1.34531 19.501 3 19.501H6.75H7.5V20.251V23.251C7.5 23.5369 7.65938 23.7947 7.9125 23.9213C8.16563 24.0479 8.47031 24.0197 8.7 23.851L14.4984 19.501H21C22.6547 19.501 24 18.1557 24 16.501V3.00098C24 1.34629 22.6547 0.000976562 21 0.000976562H3ZM6.375 7.12598C6.16875 7.12598 6 7.29473 6 7.50098C6 7.70723 6.16875 7.87598 6.375 7.87598H17.625C17.8312 7.87598 18 7.70723 18 7.50098C18 7.29473 17.8312 7.12598 17.625 7.12598H6.375ZM6.375 11.626C6.16875 11.626 6 11.7947 6 12.001C6 12.2072 6.16875 12.376 6.375 12.376H13.125C13.3313 12.376 13.5 12.2072 13.5 12.001C13.5 11.7947 13.3313 11.626 13.125 11.626H6.375Z" fill="#4C5D64"/>
</svg>
