<svg width="24" height="24" viewBox="0 0 24 24" fill="none" xmlns="http://www.w3.org/2000/svg">
<g id="shield" clip-path="url(#clip0_532_5916)">
<path id="Primary" d="M12.8813 1.05977C12.3188 0.820703 11.686 0.820703 11.1235 1.05977L2.83596 4.5707C2.05783 4.90352 1.49533 5.6582 1.50002 6.5582C1.52346 11.0863 3.38908 19.2238 11.0906 22.9082C11.6672 23.1848 12.3422 23.1848 12.9188 22.9082C20.6156 19.2238 22.4813 11.0863 22.5047 6.5582C22.5094 5.66289 21.9469 4.90352 21.1688 4.5707L12.886 1.05508L12.8813 1.05977ZM10.8281 0.366016C11.5781 0.0472656 12.4219 0.0472656 13.1719 0.366016L21.4547 3.88164C22.486 4.31758 23.2547 5.33477 23.25 6.56289C23.2266 11.2129 21.3141 19.7207 13.2375 23.5879C12.4547 23.9629 11.5453 23.9629 10.7625 23.5879C2.68596 19.7207 0.773459 11.2129 0.750021 6.56289C0.745334 5.33477 1.51408 4.31758 2.54533 3.88164L10.8281 0.366016Z" fill="#4C5D64"/>
</g>
<defs>
<clipPath id="clip0_532_5916">
<rect width="24" height="24" fill="white"/>
</clipPath>
</defs>
</svg>
