<svg width="30" height="24" viewBox="0 0 30 24" fill="none" xmlns="http://www.w3.org/2000/svg">
<path id="Primary" d="M18.75 0.75C19.5797 0.75 20.25 1.42031 20.25 2.25V6.75C20.25 7.57969 19.5797 8.25 18.75 8.25H11.25C10.4203 8.25 9.75 7.57969 9.75 6.75V2.25C9.75 1.42031 10.4203 0.75 11.25 0.75H18.75ZM11.25 0C10.0078 0 9 1.00781 9 2.25V6.75C9 7.99219 10.0078 9 11.25 9H14.625V11.625H0.375C0.16875 11.625 0 11.7937 0 12C0 12.2063 0.16875 12.375 0.375 12.375H7.125V15H3.75C2.50781 15 1.5 16.0078 1.5 17.25V21.75C1.5 22.9922 2.50781 24 3.75 24H11.25C12.4922 24 13.5 22.9922 13.5 21.75V17.25C13.5 16.0078 12.4922 15 11.25 15H7.875V12.375H22.125V15H18.75C17.5078 15 16.5 16.0078 16.5 17.25V21.75C16.5 22.9922 17.5078 24 18.75 24H26.25C27.4922 24 28.5 22.9922 28.5 21.75V17.25C28.5 16.0078 27.4922 15 26.25 15H22.875V12.375H29.625C29.8312 12.375 30 12.2063 30 12C30 11.7937 29.8312 11.625 29.625 11.625H15.375V9H18.75C19.9922 9 21 7.99219 21 6.75V2.25C21 1.00781 19.9922 0 18.75 0H11.25ZM3.75 15.75H11.25C12.0797 15.75 12.75 16.4203 12.75 17.25V21.75C12.75 22.5797 12.0797 23.25 11.25 23.25H3.75C2.92031 23.25 2.25 22.5797 2.25 21.75V17.25C2.25 16.4203 2.92031 15.75 3.75 15.75ZM26.25 15.75C27.0797 15.75 27.75 16.4203 27.75 17.25V21.75C27.75 22.5797 27.0797 23.25 26.25 23.25H18.75C17.9203 23.25 17.25 22.5797 17.25 21.75V17.25C17.25 16.4203 17.9203 15.75 18.75 15.75H26.25Z" fill="#4C5D64"/>
</svg>
