<svg width="21" height="24" viewBox="0 0 21 24" fill="none" xmlns="http://www.w3.org/2000/svg">
<g id="user-vneck" clip-path="url(#clip0_531_3379)">
<path id="Primary" d="M10.5 11.25C11.8924 11.25 13.2277 10.6969 14.2123 9.71231C15.1969 8.72774 15.75 7.39239 15.75 6C15.75 4.60761 15.1969 3.27226 14.2123 2.28769C13.2277 1.30312 11.8924 0.75 10.5 0.75C9.10761 0.75 7.77226 1.30312 6.78769 2.28769C5.80312 3.27226 5.25 4.60761 5.25 6C5.25 7.39239 5.80312 8.72774 6.78769 9.71231C7.77226 10.6969 9.10761 11.25 10.5 11.25ZM16.5 6C16.5 7.5913 15.8679 9.11742 14.7426 10.2426C13.6174 11.3679 12.0913 12 10.5 12C8.9087 12 7.38258 11.3679 6.25736 10.2426C5.13214 9.11742 4.5 7.5913 4.5 6C4.5 4.4087 5.13214 2.88258 6.25736 1.75736C7.38258 0.632141 8.9087 0 10.5 0C12.0913 0 13.6174 0.632141 14.7426 1.75736C15.8679 2.88258 16.5 4.4087 16.5 6ZM9.3 19.1484L6.31406 15.1688C3.13125 15.8813 0.75 18.7266 0.75 22.125V22.5C0.75 22.9125 1.0875 23.25 1.5 23.25H19.5C19.9125 23.25 20.25 22.9125 20.25 22.5V22.125C20.25 18.7266 17.8687 15.8813 14.6859 15.1688L11.7 19.1484C11.1 19.95 9.9 19.95 9.3 19.1484ZM6.19219 14.4281C6.46406 14.3672 6.74062 14.4844 6.90937 14.7047L9.90469 18.6984C10.2047 19.0969 10.8047 19.0969 11.1047 18.6984L14.1 14.7047C14.2687 14.4844 14.5453 14.3672 14.8172 14.4281C18.3469 15.2016 21 18.3516 21 22.125V22.5C21 23.3297 20.3297 24 19.5 24H1.5C0.670312 24 0 23.3297 0 22.5V22.125C0 18.3516 2.65313 15.2016 6.19219 14.4328V14.4281Z" fill="#4C5D64"/>
</g>
<defs>
<clipPath id="clip0_531_3379">
<rect width="21" height="24" fill="white"/>
</clipPath>
</defs>
</svg>
