<svg width="1140" height="498" viewBox="0 0 440 498" fill="none" xmlns="http://www.w3.org/2000/svg">
<path fill-rule="evenodd" clip-rule="evenodd" d="M-258.734 375.02C-258.734 380.31 -262.863 384.806 -268.023 385.07V498H-270.603V385.07C-274.989 384.012 -278.601 380.045 -278.601 375.02C-278.601 369.466 -274.215 364.971 -268.539 364.971C-263.121 364.971 -258.734 369.466 -258.734 375.02ZM-261.315 375.02C-261.315 370.789 -264.669 367.615 -268.539 367.615C-272.667 367.615 -276.021 370.789 -276.021 375.02C-276.021 379.252 -272.667 382.426 -268.539 382.426C-264.669 382.426 -261.315 379.252 -261.315 375.02Z" fill="url(#paint0_radial_532_5624)" fill-opacity="0.12"/>
<path fill-rule="evenodd" clip-rule="evenodd" d="M-233.45 375.02C-233.45 380.31 -237.32 384.806 -242.48 385.07V498H-245.06V385.07C-249.704 384.012 -253.316 380.045 -253.316 375.02C-253.316 369.466 -248.672 364.971 -243.254 364.971C-237.836 364.971 -233.45 369.466 -233.45 375.02ZM-236.03 375.02C-236.03 370.789 -239.126 367.615 -243.254 367.615C-247.382 367.615 -250.736 370.789 -250.736 375.02C-250.736 379.252 -247.382 382.426 -243.254 382.426C-239.126 382.426 -236.03 379.252 -236.03 375.02Z" fill="url(#paint1_radial_532_5624)" fill-opacity="0.12"/>
<path fill-rule="evenodd" clip-rule="evenodd" d="M-207.907 375.02C-207.907 380.31 -212.035 384.806 -217.195 385.07V498H-219.775V385.07C-224.42 384.012 -227.774 380.045 -227.774 375.02C-227.774 369.466 -223.388 364.971 -217.969 364.971C-212.551 364.971 -207.907 369.466 -207.907 375.02ZM-210.487 375.02C-210.487 370.789 -213.841 367.615 -217.969 367.615C-222.097 367.615 -225.194 370.789 -225.194 375.02C-225.194 379.252 -222.097 382.426 -217.969 382.426C-213.841 382.426 -210.487 379.252 -210.487 375.02Z" fill="url(#paint2_radial_532_5624)" fill-opacity="0.12"/>
<path fill-rule="evenodd" clip-rule="evenodd" d="M-104.188 404.113C-104.188 409.402 -108.316 413.634 -113.476 414.163V498H-116.056V413.898C-120.442 413.105 -124.054 408.873 -124.054 404.113C-124.054 398.559 -119.668 393.798 -113.992 393.798C-108.574 393.798 -104.188 398.559 -104.188 404.113ZM-106.768 404.113C-106.768 399.881 -110.122 396.443 -113.992 396.443C-118.12 396.443 -121.474 399.881 -121.474 404.113C-121.474 408.08 -118.12 411.518 -113.992 411.518C-110.122 411.518 -106.768 408.08 -106.768 404.113Z" fill="url(#paint3_radial_532_5624)" fill-opacity="0.12"/>
<path fill-rule="evenodd" clip-rule="evenodd" d="M-77.3546 404.113C-77.3546 409.402 -81.2247 413.634 -86.3849 414.163V498H-88.965V413.898C-93.6091 413.105 -97.2212 408.873 -97.2212 404.113C-97.2212 398.559 -92.577 393.798 -87.1589 393.798C-81.7407 393.798 -77.3546 398.559 -77.3546 404.113ZM-79.9347 404.113C-79.9347 399.881 -83.0307 396.443 -87.1589 396.443C-91.287 396.443 -94.6411 399.881 -94.6411 404.113C-94.6411 408.08 -91.287 411.518 -87.1589 411.518C-83.0307 411.518 -79.9347 408.08 -79.9347 404.113Z" fill="url(#paint4_radial_532_5624)" fill-opacity="0.12"/>
<path fill-rule="evenodd" clip-rule="evenodd" d="M-160.691 301.497C-155.273 301.497 -150.887 305.993 -150.887 311.547C-150.887 317.101 -155.273 321.862 -160.691 321.862C-166.367 321.862 -170.754 317.101 -170.754 311.547C-170.754 305.993 -166.367 301.497 -160.691 301.497ZM-160.691 304.142C-164.819 304.142 -168.173 307.58 -168.173 311.547C-168.173 315.779 -164.819 319.217 -160.691 319.217C-156.821 319.217 -153.467 315.779 -153.467 311.547C-153.467 307.58 -156.821 304.142 -160.691 304.142Z" fill="url(#paint5_radial_532_5624)" fill-opacity="0.12"/>
<path d="M-93.6091 329.532L-47.9416 284.836V119.541C-43.8134 119.012 -40.4594 115.31 -40.4594 110.814C-40.4594 106.053 -44.3295 102.086 -49.2316 102.086C-53.8758 102.086 -57.7459 106.053 -57.7459 110.814C-57.7459 115.31 -54.6498 119.012 -50.5217 119.541V283.778L-96.1892 328.209V353.599L-137.212 394.856V498H-134.632V395.914L-93.6091 354.656V329.532Z" fill="url(#paint6_radial_532_5624)" fill-opacity="0.12"/>
<path d="M-139.793 298.06L-95.6731 254.422V119.541C-91.545 119.012 -88.1909 115.31 -88.1909 110.814C-88.1909 106.053 -92.061 102.086 -96.9632 102.086C-101.607 102.086 -105.477 106.053 -105.477 110.814C-105.477 115.31 -102.381 119.012 -98.2532 119.541V253.364L-142.373 297.002V319.746L-192.684 368.938V498H-190.104V369.996L-139.793 320.804V298.06Z" fill="url(#paint7_radial_532_5624)" fill-opacity="0.12"/>
<path fill-rule="evenodd" clip-rule="evenodd" d="M-294.34 259.975L-354.972 364.441V498H-357.552V78.5479H-274.731V184.865H-341.297V95.2096H-308.272V148.633C-303.112 148.897 -298.984 153.129 -298.984 158.683C-298.984 164.237 -303.37 168.733 -308.788 168.733C-314.207 168.733 -318.851 164.237 -318.851 158.683C-318.851 153.658 -315.239 149.691 -310.852 148.633V97.8543H-338.717V182.221H-277.311V81.1926H-354.972V196.767H-217.711V97.5898C-221.84 97.0609 -224.936 93.3583 -224.936 88.8622C-224.936 84.1018 -221.066 80.1347 -216.421 80.1347C-211.519 80.1347 -207.649 84.1018 -207.649 88.8622C-207.649 93.3583 -211.003 97.0609 -215.131 97.5898V199.411H-354.972V304.406L-313.433 227.445H-196.297V147.046C-201.199 146.517 -204.811 142.285 -204.811 136.996C-204.811 131.442 -200.425 126.946 -195.007 126.946C-189.589 126.946 -184.944 131.442 -184.944 136.996C-184.944 142.285 -188.814 146.517 -193.717 147.046V230.09H-311.884L-354.972 309.696V359.152L-295.888 257.331H-191.653L-149.855 217.131V119.541C-153.983 119.012 -157.338 115.309 -157.338 110.813C-157.338 106.053 -153.467 102.086 -148.565 102.086C-143.921 102.086 -140.051 106.053 -140.051 110.813C-140.051 115.309 -143.147 119.012 -147.275 119.541V218.189L-190.621 259.975H-294.34ZM-195.007 144.401C-190.879 144.401 -187.524 141.228 -187.524 136.996C-187.524 132.765 -190.879 129.591 -195.007 129.591C-198.877 129.591 -202.231 132.765 -202.231 136.996C-202.231 141.228 -198.877 144.401 -195.007 144.401ZM-308.788 151.013C-312.916 151.013 -316.271 154.451 -316.271 158.683C-316.271 162.914 -312.916 166.088 -308.788 166.088C-304.66 166.088 -301.564 162.914 -301.564 158.683C-301.564 154.451 -304.66 151.013 -308.788 151.013Z" fill="url(#paint8_radial_532_5624)" fill-opacity="0.12"/>
<path fill-rule="evenodd" clip-rule="evenodd" d="M-20.3351 294.886L-63.4225 338.788V498H-66.0026V337.73L-22.9152 293.828V120.864C-27.8174 120.335 -31.4295 116.103 -31.4295 110.814C-31.4295 105.26 -27.0434 100.764 -21.6252 100.764C-16.207 100.764 -11.5629 105.26 -11.5629 110.814C-11.5629 116.103 -15.433 120.335 -20.3351 120.864V294.886ZM-21.6252 118.219C-17.497 118.219 -14.143 115.045 -14.143 110.814C-14.143 106.582 -17.497 103.409 -21.6252 103.409C-25.4953 103.409 -28.8494 106.582 -28.8494 110.814C-28.8494 115.045 -25.4953 118.219 -21.6252 118.219Z" fill="url(#paint9_radial_532_5624)" fill-opacity="0.12"/>
<path fill-rule="evenodd" clip-rule="evenodd" d="M-115.024 335.35L-159.66 381.633V498H-162.24V380.575L-117.604 334.292V312.87L-117.346 312.605L-75.0329 271.877V120.864C-79.6771 120.335 -83.5473 116.103 -83.5473 110.814C-83.5473 105.26 -79.1611 100.764 -73.7429 100.764C-68.0667 100.764 -63.6806 105.26 -63.6806 110.814C-63.6806 116.103 -67.5507 120.335 -72.4529 120.864V273.199L-72.7109 273.464L-115.024 313.928V335.35ZM-73.7429 118.483C-69.6147 118.483 -66.2607 115.045 -66.2607 111.078C-66.2607 106.847 -69.6147 103.409 -73.7429 103.409C-77.613 103.409 -80.9672 106.847 -80.9672 111.078C-80.9672 115.045 -77.613 118.483 -73.7429 118.483Z" fill="url(#paint10_radial_532_5624)" fill-opacity="0.12"/>
<path fill-rule="evenodd" clip-rule="evenodd" d="M-275.505 285.629L-333.299 384.013V498H-335.879V382.955L-276.795 282.985H-173.592L-126.634 233.793V120.864C-131.536 120.335 -135.406 116.103 -135.406 110.814C-135.406 105.26 -130.762 100.764 -125.344 100.764C-119.926 100.764 -115.54 105.26 -115.54 110.814C-115.54 116.103 -119.152 120.335 -124.054 120.864V234.851L-172.56 285.629H-275.505ZM-125.344 118.483C-121.474 118.483 -118.12 115.045 -118.12 110.814C-118.12 106.847 -121.474 103.409 -125.344 103.409C-129.472 103.409 -132.826 106.847 -132.826 110.814C-132.826 115.045 -129.472 118.483 -125.344 118.483Z" fill="url(#paint11_radial_532_5624)" fill-opacity="0.12"/>
<path fill-rule="evenodd" clip-rule="evenodd" d="M-168.69 319.217L-203.005 350.425H-289.437L-290.212 498H-292.792L-292.018 347.78H-270.345L-242.48 316.837H-226.225C-225.451 312.076 -221.323 308.109 -216.421 308.109C-211.003 308.109 -206.359 312.605 -206.359 318.159C-206.359 323.977 -211.003 328.473 -216.421 328.473C-221.323 328.473 -225.451 324.506 -226.225 319.481H-241.448L-266.733 347.78H-204.037L-170.238 317.366L-168.69 319.217ZM-223.903 318.159C-223.903 322.391 -220.549 325.564 -216.421 325.564C-212.551 325.564 -209.197 322.391 -209.197 318.159C-209.197 313.928 -212.551 310.489 -216.421 310.489C-220.549 310.489 -223.903 313.928 -223.903 318.159Z" fill="url(#paint12_radial_532_5624)" fill-opacity="0.12"/>
<path fill-rule="evenodd" clip-rule="evenodd" d="M-369.42 53.6877V498H-372V21.9511H-308.53C-308.702 21.0695 -308.788 20.188 -308.788 19.3064C-308.788 14.5459 -304.918 10.5789 -300.274 10.5789C-295.372 10.5789 -291.501 14.5459 -291.501 19.3064C-291.501 24.3313 -295.372 28.2984 -300.274 28.2984C-303.112 28.2984 -305.692 26.7116 -307.24 24.5958H-369.42V51.0429H-280.149C-279.633 46.018 -275.505 42.3154 -270.603 42.3154C-264.927 42.3154 -260.54 46.8114 -260.54 52.3653C-260.54 57.9192 -264.927 62.6797 -270.603 62.6797C-275.505 62.6797 -279.633 58.7126 -280.149 53.6877H-369.42ZM-277.827 52.3653C-277.827 56.5968 -274.473 60.035 -270.603 60.035C-266.475 60.035 -263.121 56.5968 -263.121 52.3653C-263.121 48.3982 -266.475 44.9601 -270.603 44.9601C-274.473 44.9601 -277.827 48.3982 -277.827 52.3653Z" fill="url(#paint13_radial_532_5624)" fill-opacity="0.12"/>
<path fill-rule="evenodd" clip-rule="evenodd" d="M36.9431 439.022H140.662V498H138.082V441.667H36.9431V498H34.363V441.667H20.1726V498H17.5925V441.667H-32.4611V498H-35.0412V441.667H-49.4897V498H-52.0697V439.022H-35.0412V349.102L1.85397 311.018V89.9202H4.43405V312.076L-32.4611 350.16V439.022H17.5925V211.577H104.025V119.276C99.1231 118.483 95.5109 114.252 95.5109 109.227C95.5109 103.673 99.8971 98.9122 105.315 98.9122C110.733 98.9122 115.378 103.673 115.378 109.227C115.378 114.252 111.508 118.483 106.605 119.276V214.222H20.1726V439.022H34.363V227.445H123.634V49.7205C119.248 49.1916 115.894 45.489 115.894 40.993C115.894 36.2325 119.764 32.2654 124.666 32.2654C129.31 32.2654 133.18 36.2325 133.18 40.993C133.18 45.489 130.084 48.9271 126.214 49.7205V230.09H36.9431V439.022ZM104.025 116.632V116.103H106.605V116.632C109.959 115.838 112.798 112.929 112.798 109.227C112.798 104.995 109.443 101.557 105.315 101.557C101.187 101.557 98.091 104.995 98.091 109.227C98.091 112.929 100.671 115.838 104.025 116.632Z" fill="url(#paint14_radial_532_5624)" fill-opacity="0.12"/>
<path fill-rule="evenodd" clip-rule="evenodd" d="M270.44 180.369V49.7205C265.538 49.1916 261.668 44.96 261.668 39.935C261.668 34.1167 266.054 29.6207 271.73 29.6207C277.148 29.6207 281.535 34.1167 281.535 39.935C281.535 44.96 277.665 49.1916 273.02 49.7205V180.369C277.407 181.427 281.019 185.394 281.019 190.419C281.019 195.973 276.633 200.469 270.956 200.469C265.538 200.469 261.152 195.973 261.152 190.419C261.152 185.13 265.28 180.634 270.44 180.369ZM270.956 182.75C267.086 182.75 263.732 186.188 263.732 190.419C263.732 194.651 267.086 197.824 270.956 197.824C275.084 197.824 278.439 194.651 278.439 190.419C278.439 186.188 275.084 182.75 270.956 182.75ZM271.73 47.3403C275.6 47.3403 278.955 43.9021 278.955 39.935C278.955 35.7035 275.6 32.2654 271.73 32.2654C267.602 32.2654 264.248 35.7035 264.248 39.935C264.248 43.9021 267.602 47.3403 271.73 47.3403Z" fill="url(#paint15_radial_532_5624)" fill-opacity="0.12"/>
<path fill-rule="evenodd" clip-rule="evenodd" d="M307.336 163.972V61.8865C302.176 61.622 298.047 57.1259 298.047 51.8365C298.047 46.2826 302.692 41.7866 308.11 41.7866C313.528 41.7866 317.914 46.2826 317.914 51.8365C317.914 56.8614 314.56 60.8286 309.916 61.8865V164.237C314.56 165.03 317.914 169.262 317.914 174.022C317.914 179.841 313.528 184.337 308.11 184.337C302.692 184.337 298.047 179.841 298.047 174.022C298.047 168.733 302.176 164.501 307.336 163.972ZM308.11 166.617C303.982 166.617 300.628 170.055 300.628 174.022C300.628 178.254 303.982 181.692 308.11 181.692C311.98 181.692 315.334 178.254 315.334 174.022C315.334 170.055 311.98 166.617 308.11 166.617Z" fill="url(#paint16_radial_532_5624)" fill-opacity="0.12"/>
<path fill-rule="evenodd" clip-rule="evenodd" d="M65.3238 32.2658V160.799C70.4839 161.328 74.6121 165.559 74.6121 171.113C74.6121 176.667 70.2259 181.163 64.8077 181.163C59.1316 181.163 54.7455 176.667 54.7455 171.113C54.7455 166.088 58.3576 161.857 62.7437 161.063V32.2658C58.3576 31.2079 54.7455 27.2409 54.7455 22.2159C54.7455 16.662 59.1316 12.1659 64.8077 12.1659C70.2259 12.1659 74.6121 16.662 74.6121 22.2159C74.6121 27.5053 70.4839 32.0013 65.3238 32.2658ZM64.8077 29.6211C68.6779 29.6211 72.032 26.4474 72.032 22.2159C72.032 17.9844 68.6779 14.8107 64.8077 14.8107C60.6796 14.8107 57.3255 17.9844 57.3255 22.2159C57.3255 26.4474 60.6796 29.6211 64.8077 29.6211ZM65.3238 163.444V163.973H62.7437V163.708C59.6476 164.502 57.3255 167.411 57.3255 171.113C57.3255 175.08 60.6796 178.519 64.8077 178.519C68.6779 178.519 72.032 175.08 72.032 171.113C72.032 167.146 69.1939 163.973 65.3238 163.444Z" fill="url(#paint17_radial_532_5624)" fill-opacity="0.12"/>
<path fill-rule="evenodd" clip-rule="evenodd" d="M28.4284 48.6626V150.749C33.5886 151.013 37.7167 155.509 37.7167 160.798C37.7167 166.352 33.0726 170.848 27.6544 170.848C22.2362 170.848 17.8501 166.352 17.8501 160.798C17.8501 155.774 21.2042 151.807 25.8483 150.749V48.3982C21.2042 47.6047 17.8501 43.3732 17.8501 38.3483C17.8501 32.7944 22.2362 28.2983 27.6544 28.2983C33.0726 28.2983 37.7167 32.7944 37.7167 38.3483C37.7167 43.9022 33.5886 48.1337 28.4284 48.6626ZM27.6544 46.0179C31.7826 46.0179 35.1366 42.5798 35.1366 38.3483C35.1366 34.3812 31.7826 30.943 27.6544 30.943C23.7843 30.943 20.4302 34.3812 20.4302 38.3483C20.4302 42.5798 23.7843 46.0179 27.6544 46.0179ZM28.4284 153.393V153.658H25.8483V153.393C22.7522 154.451 20.4302 157.36 20.4302 160.798C20.4302 165.03 23.7843 168.204 27.6544 168.204C31.7826 168.204 35.1366 165.03 35.1366 160.798C35.1366 156.831 32.0405 153.658 28.4284 153.393Z" fill="url(#paint18_radial_532_5624)" fill-opacity="0.12"/>
<path fill-rule="evenodd" clip-rule="evenodd" d="M358.421 387.186H812V389.831H357.389L357.131 389.566V406.757H812V409.402H357.131V428.708H812V431.353H357.131V451.982H812V454.626H357.131V498H354.551V454.626H317.398L316.882 454.362L152.272 295.15V20.6287C147.37 19.8353 143.5 15.6038 143.5 10.5789C143.5 5.02496 148.144 0.264407 153.562 0.264407C158.981 0.264407 163.367 5.02496 163.367 10.5789C163.367 15.6038 159.755 19.8353 154.852 20.6287V294.092L318.43 451.982H354.551V431.353H327.976L327.46 430.824L180.395 281.926V19.8354C176.267 19.3064 172.913 15.6038 172.913 11.1077C172.913 6.34727 176.783 2.38023 181.685 2.38023C186.329 2.38023 190.2 6.34727 190.2 11.1077C190.2 15.3393 187.103 19.0419 182.975 19.8354V280.869L329.008 428.708H354.551V409.402H341.392L208.518 272.934V20.3642C203.616 19.5708 200.004 15.3393 200.004 10.3144C200.004 4.76047 204.39 0.264407 209.808 0.264407C215.226 0.264407 219.613 4.76047 219.613 10.3144C219.613 15.3393 216 19.5708 211.098 20.3642V271.877L342.424 406.757H354.551V386.922L237.673 268.438V17.7195C233.545 17.1906 230.191 13.488 230.191 8.99201C230.191 3.96705 234.061 0 238.705 0C243.607 0 247.477 3.96705 247.477 8.99201C247.477 13.2236 244.381 16.9261 240.253 17.455V267.381L354.551 383.219V281.662C349.649 280.869 346.037 276.637 346.037 271.612C346.037 266.058 350.423 261.298 355.841 261.298C361.259 261.298 365.903 266.058 365.903 271.612C365.903 276.637 362.033 280.869 357.131 281.662V385.864L358.421 387.186ZM356.099 279.282C359.969 279.282 363.323 275.844 363.323 271.612C363.323 267.645 359.969 264.207 356.099 264.207C351.971 264.207 348.617 267.645 348.617 271.612C348.617 275.844 351.971 279.282 356.099 279.282ZM209.808 17.984C213.936 17.984 217.29 14.5459 217.29 10.3144C217.29 6.3473 213.936 2.90912 209.808 2.90912C205.938 2.90912 202.584 6.3473 202.584 10.3144C202.584 14.5459 205.938 17.984 209.808 17.984ZM153.562 18.2485C157.69 18.2485 161.045 14.8104 161.045 10.5789C161.045 6.61178 157.69 3.17361 153.562 3.17361C149.692 3.17361 146.338 6.61178 146.338 10.5789C146.338 14.8104 149.692 18.2485 153.562 18.2485Z" fill="url(#paint19_radial_532_5624)" fill-opacity="0.12"/>
<path fill-rule="evenodd" clip-rule="evenodd" d="M753.948 84.3668H811.999V87.0115H756.528V122.186H637.586V84.3668H733.823V104.467H690.736C690.219 109.492 686.091 113.459 680.931 113.459C675.513 113.459 671.127 108.963 671.127 103.409C671.127 97.8548 675.513 93.0943 680.931 93.0943C685.833 93.0943 689.962 97.0614 690.736 101.822H731.243V87.0115H640.166V119.541H753.948V84.3668ZM688.413 103.409C688.413 99.1771 685.059 95.739 680.931 95.739C677.061 95.739 673.707 99.1771 673.707 103.409C673.707 107.64 677.061 110.814 680.931 110.814C685.059 110.814 688.413 107.64 688.413 103.409Z" fill="url(#paint20_radial_532_5624)" fill-opacity="0.12"/>
<path fill-rule="evenodd" clip-rule="evenodd" d="M594.241 162.121V313.663C599.143 314.456 603.013 318.688 603.013 323.713C603.013 329.531 598.369 334.027 592.951 334.027C587.533 334.027 583.147 329.531 583.147 323.713C583.147 318.688 586.759 314.456 591.661 313.663V162.121C586.501 161.856 582.631 157.36 582.631 152.071C582.631 146.517 587.017 142.021 592.435 142.021C597.853 142.021 602.239 146.517 602.239 152.071C602.239 157.096 598.885 161.063 594.241 162.121ZM592.435 159.476C596.563 159.476 599.659 156.303 599.659 152.071C599.659 147.839 596.563 144.666 592.435 144.666C588.307 144.666 585.211 147.839 585.211 152.071C585.211 156.303 588.307 159.476 592.435 159.476ZM592.951 316.308C589.081 316.308 585.727 319.746 585.727 323.713C585.727 327.944 589.081 331.383 592.951 331.383C597.079 331.383 600.433 327.944 600.433 323.713C600.433 319.746 597.079 316.308 592.951 316.308Z" fill="url(#paint21_radial_532_5624)" fill-opacity="0.12"/>
<path fill-rule="evenodd" clip-rule="evenodd" d="M565.602 354.921H812V357.566H563.022V345.929L559.925 341.168H375.192V262.62L375.708 262.091L451.304 197.825C450.96 196.767 450.788 195.709 450.788 194.651C450.788 188.833 455.174 184.337 460.592 184.337C466.01 184.337 470.655 188.833 470.655 194.651C470.655 200.205 466.01 204.701 460.592 204.701C457.238 204.701 454.4 202.85 452.594 200.205L377.772 263.678V338.524H558.119L547.025 321.333V321.862H394.284V267.381H483.555V300.704H431.179C430.663 305.729 426.535 309.961 421.375 309.961C415.957 309.961 411.571 305.2 411.571 299.646C411.571 294.093 415.957 289.597 421.375 289.597C426.277 289.597 430.405 293.299 431.179 298.06H480.975V270.026H396.864V319.217H500.068V46.5473C495.165 45.7539 491.553 41.5224 491.553 36.4974C491.553 30.9435 495.939 26.1831 501.358 26.1831C506.776 26.1831 511.162 30.9435 511.162 36.4974C511.162 41.5224 507.55 45.7539 502.648 46.5473V319.217H545.477L530.255 295.679V46.5473C525.352 45.7539 521.74 41.5224 521.74 36.4974C521.74 30.9435 526.126 26.1831 531.545 26.1831C536.963 26.1831 541.349 30.9435 541.349 36.4974C541.349 41.5224 537.737 45.7539 532.835 46.5473V294.886L561.216 338.524H563.022V46.5473C558.119 45.7539 554.507 41.5224 554.507 36.4974C554.507 30.9435 558.893 26.1831 564.312 26.1831C569.73 26.1831 574.116 30.9435 574.116 36.4974C574.116 41.5224 570.504 45.7539 565.602 46.5473V354.921ZM531.545 43.9026C535.673 43.9026 538.769 40.4645 538.769 36.4974C538.769 32.2659 535.673 28.8278 531.545 28.8278C527.416 28.8278 524.32 32.2659 524.32 36.4974C524.32 40.4645 527.416 43.9026 531.545 43.9026ZM501.358 43.9026C505.486 43.9026 508.582 40.4645 508.582 36.4974C508.582 32.2659 505.486 28.8278 501.358 28.8278C497.229 28.8278 494.133 32.2659 494.133 36.4974C494.133 40.4645 497.229 43.9026 501.358 43.9026ZM428.599 299.646C428.599 295.679 425.503 292.241 421.375 292.241C417.247 292.241 414.151 295.679 414.151 299.646C414.151 303.878 417.247 307.316 421.375 307.316C425.503 307.316 428.599 303.878 428.599 299.646ZM453.368 194.387C453.368 198.618 456.722 202.057 460.592 202.057C464.72 202.057 468.075 198.618 468.075 194.387C468.075 190.42 464.72 186.982 460.592 186.982C456.722 186.982 453.368 190.42 453.368 194.387ZM564.312 43.9026C568.44 43.9026 571.536 40.4645 571.536 36.4974C571.536 32.2659 568.44 28.8278 564.312 28.8278C560.183 28.8278 557.087 32.2659 557.087 36.4974C557.087 40.4645 560.183 43.9026 564.312 43.9026Z" fill="url(#paint22_radial_532_5624)" fill-opacity="0.12"/>
<path fill-rule="evenodd" clip-rule="evenodd" d="M442.532 91.7719C442.532 92.8298 442.36 93.7996 442.016 94.6811L483.556 102.88V245.694H451.046C450.272 250.719 446.144 254.686 441.242 254.686C435.824 254.686 431.18 250.19 431.18 244.372C431.18 238.818 435.824 234.322 441.242 234.322C446.144 234.322 450.272 238.289 451.046 243.05H480.975V104.995L440.984 97.0614C439.178 99.9705 436.082 102.086 432.47 102.086C427.052 102.086 422.665 97.3258 422.665 91.7719C422.665 86.218 427.052 81.722 432.47 81.722C438.146 81.722 442.532 86.218 442.532 91.7719ZM448.466 244.372C448.466 240.405 445.112 236.967 441.242 236.967C437.114 236.967 433.76 240.405 433.76 244.372C433.76 248.603 437.114 252.042 441.242 252.042C445.112 252.042 448.466 248.603 448.466 244.372ZM439.952 91.7719C439.952 87.8049 436.598 84.3668 432.47 84.3668C428.6 84.3668 425.246 87.8049 425.246 91.7719C425.246 96.0035 428.6 99.4416 432.47 99.4416C436.598 99.4416 439.952 96.0035 439.952 91.7719Z" fill="url(#paint23_radial_532_5624)" fill-opacity="0.12"/>
<path fill-rule="evenodd" clip-rule="evenodd" d="M638.36 337.465H812V340.11H637.07L616.172 312.076V135.145C611.269 134.616 607.657 130.384 607.657 125.095C607.657 119.541 612.043 115.045 617.462 115.045C622.88 115.045 627.266 119.541 627.266 125.095C627.266 130.384 623.654 134.616 618.752 135.145V311.283L638.36 337.465ZM617.462 132.765C621.332 132.765 624.686 129.326 624.686 125.095C624.686 121.128 621.332 117.69 617.462 117.69C613.333 117.69 609.979 121.128 609.979 125.095C609.979 129.326 613.333 132.765 617.462 132.765Z" fill="url(#paint24_radial_532_5624)" fill-opacity="0.12"/>
<path fill-rule="evenodd" clip-rule="evenodd" d="M325.654 253.893V305.993C330.557 306.787 334.169 311.018 334.169 316.043C334.169 321.597 329.783 326.358 324.364 326.358C318.946 326.358 314.302 321.597 314.302 316.043C314.302 311.018 318.172 306.787 323.074 305.993V252.57L456.723 160.799V140.434C451.82 139.905 448.208 135.674 448.208 130.649C448.208 124.83 452.594 120.334 458.013 120.334C463.431 120.334 468.075 124.83 468.075 130.649C468.075 135.674 464.205 139.905 459.303 140.434V162.121L325.654 253.893ZM458.271 137.79C462.141 137.79 465.495 134.616 465.495 130.384C465.495 126.153 462.141 122.979 458.271 122.979C454.143 122.979 450.788 126.153 450.788 130.384C450.788 134.616 454.143 137.79 458.271 137.79ZM324.364 308.374C320.494 308.374 317.14 311.812 317.14 316.043C317.14 320.01 320.494 323.448 324.364 323.448C328.492 323.448 331.847 320.01 331.847 316.043C331.847 311.812 328.492 308.374 324.364 308.374Z" fill="url(#paint25_radial_532_5624)" fill-opacity="0.12"/>
<path fill-rule="evenodd" clip-rule="evenodd" d="M421.375 156.831V137.79C417.247 136.467 414.151 132.5 414.151 128.004C414.151 122.186 418.537 117.69 423.955 117.69C429.373 117.69 433.759 122.186 433.759 128.004C433.759 133.558 429.373 138.054 423.955 138.054V158.154L300.627 239.611V284.836C306.045 284.836 310.431 289.332 310.431 294.886C310.431 300.439 306.045 305.2 300.627 305.2C294.951 305.2 290.565 300.439 290.565 294.886C290.565 289.596 294.435 285.365 299.337 284.836H298.047V238.024L421.375 156.831ZM300.369 287.48C296.241 287.48 293.145 290.918 293.145 295.15C293.145 299.117 296.241 302.555 300.369 302.555C304.497 302.555 307.851 299.117 307.851 295.15C307.851 290.918 304.497 287.48 300.369 287.48ZM423.955 135.409C427.825 135.409 431.179 132.236 431.179 128.004C431.179 123.773 427.825 120.599 423.955 120.599C419.827 120.599 416.473 123.773 416.473 128.004C416.473 132.236 419.827 135.409 423.955 135.409Z" fill="url(#paint26_radial_532_5624)" fill-opacity="0.12"/>
<path fill-rule="evenodd" clip-rule="evenodd" d="M270.698 230.355L386.544 151.542V137.525C382.674 135.938 379.836 132.236 379.836 128.004C379.836 122.186 384.222 117.69 389.898 117.69C395.316 117.69 399.702 122.186 399.702 128.004C399.702 133.558 395.316 138.054 389.898 138.054C389.554 138.054 389.296 138.054 389.124 138.054V152.864L273.278 231.677V247.81C273.622 247.81 273.88 247.81 274.052 247.81C279.47 247.81 284.115 252.306 284.115 257.86C284.115 263.413 279.47 268.174 274.052 268.174C268.634 268.174 264.248 263.413 264.248 257.86C264.248 252.57 268.118 248.339 273.02 247.81H270.698V230.355ZM274.052 250.454C270.182 250.454 266.828 253.892 266.828 258.124C266.828 262.091 270.182 265.529 274.052 265.529C278.18 265.529 281.535 262.091 281.535 258.124C281.535 253.892 278.18 250.454 274.052 250.454ZM389.898 135.674C393.768 135.674 397.122 132.236 397.122 128.004C397.122 123.773 393.768 120.599 389.898 120.599C385.77 120.599 382.416 123.773 382.416 128.004C382.416 132.236 385.77 135.674 389.898 135.674Z" fill="url(#paint27_radial_532_5624)" fill-opacity="0.12"/>
<path fill-rule="evenodd" clip-rule="evenodd" d="M656.421 316.572H812V319.217H655.389L636.812 300.175V162.121C631.91 161.327 628.04 157.096 628.04 152.071C628.04 146.517 632.684 142.021 638.102 142.021C643.52 142.021 647.906 146.517 647.906 152.071C647.906 157.096 644.294 161.327 639.392 162.121V299.117L656.421 316.572ZM638.102 159.476C641.972 159.476 645.326 156.303 645.326 152.071C645.326 147.839 641.972 144.401 638.102 144.401C633.974 144.401 630.62 147.839 630.62 152.071C630.62 156.303 633.974 159.476 638.102 159.476Z" fill="url(#paint28_radial_532_5624)" fill-opacity="0.12"/>
<path fill-rule="evenodd" clip-rule="evenodd" d="M792.133 190.684C797.551 190.684 801.937 195.18 801.937 200.734C801.937 206.288 797.551 210.784 792.133 210.784C786.715 210.784 782.329 206.288 782.329 200.734C782.329 195.18 786.715 190.684 792.133 190.684ZM792.133 193.329C788.005 193.329 784.909 196.503 784.909 200.734C784.909 204.966 788.005 208.139 792.133 208.139C796.261 208.139 799.357 204.966 799.357 200.734C799.357 196.503 796.261 193.329 792.133 193.329Z" fill="url(#paint29_radial_532_5624)" fill-opacity="0.12"/>
<path fill-rule="evenodd" clip-rule="evenodd" d="M675.513 296.737H812V299.382H674.481L655.905 280.34V193.065C651.26 192.536 647.39 188.304 647.39 183.015C647.39 177.461 651.776 172.965 657.195 172.965C662.613 172.965 667.257 177.461 667.257 183.015C667.257 188.304 663.387 192.536 658.485 193.065V279.282L675.513 296.737ZM657.195 190.42C661.323 190.42 664.677 187.246 664.677 183.015C664.677 178.783 661.323 175.609 657.195 175.609C653.324 175.609 649.97 178.783 649.97 183.015C649.97 187.246 653.324 190.42 657.195 190.42Z" fill="url(#paint30_radial_532_5624)" fill-opacity="0.12"/>
<path d="M767.88 135.41H703.12V273.728H812V271.083H705.7V138.054H767.88V154.98H726.599V254.157H812V251.513H729.179V157.625H767.88V233.793H812V231.148H770.461V157.625H812V154.98H770.461V138.054H812V135.41H770.461V116.632H812V113.987H767.88V135.41Z" fill="url(#paint31_radial_532_5624)" fill-opacity="0.12"/>
<path fill-rule="evenodd" clip-rule="evenodd" d="M57.3253 412.576H161.045V498H158.465V415.22H54.7453V281.662C49.8431 280.869 46.231 276.637 46.231 271.612C46.231 266.058 50.6172 261.298 56.0353 261.298C61.4535 261.298 66.0976 266.058 66.0976 271.612C66.0976 276.637 62.2275 280.869 57.3253 281.662V412.576ZM56.0353 279.017C60.1635 279.017 63.5175 275.579 63.5175 271.348C63.5175 267.381 60.1635 263.943 56.0353 263.943C51.9072 263.943 48.8111 267.381 48.8111 271.348C48.8111 275.579 51.9072 279.017 56.0353 279.017Z" fill="url(#paint32_radial_532_5624)" fill-opacity="0.12"/>
<path fill-rule="evenodd" clip-rule="evenodd" d="M84.9322 394.063H183.491V498H180.911V396.707H82.3521V281.662C77.45 280.869 73.8378 276.637 73.8378 271.612C73.8378 266.058 78.224 261.298 83.6422 261.298C89.0603 261.298 93.4464 266.058 93.4464 271.612C93.4464 276.637 89.8344 280.869 84.9322 281.662V394.063ZM83.6422 279.017C87.7703 279.017 90.8664 275.579 90.8664 271.348C90.8664 267.381 87.7703 263.943 83.6422 263.943C79.514 263.943 76.4179 267.381 76.4179 271.348C76.4179 275.579 79.514 279.017 83.6422 279.017Z" fill="url(#paint33_radial_532_5624)" fill-opacity="0.12"/>
<path fill-rule="evenodd" clip-rule="evenodd" d="M113.313 372.905H206.712V498H204.132V375.55H110.733V281.662C105.831 280.869 102.219 276.637 102.219 271.612C102.219 266.058 106.605 261.298 112.023 261.298C117.441 261.298 122.085 266.058 122.085 271.612C122.085 276.637 118.215 280.869 113.313 281.662V372.905ZM112.023 279.017C116.151 279.017 119.505 275.579 119.505 271.348C119.505 267.381 116.151 263.943 112.023 263.943C107.895 263.943 104.799 267.381 104.799 271.348C104.799 275.579 107.895 279.017 112.023 279.017Z" fill="url(#paint34_radial_532_5624)" fill-opacity="0.12"/>
<path fill-rule="evenodd" clip-rule="evenodd" d="M131.374 339.846C131.374 334.292 136.018 329.796 141.436 329.796C146.854 329.796 151.24 334.292 151.24 339.846C151.24 345.4 146.854 349.896 141.436 349.896C136.018 349.896 131.374 345.4 131.374 339.846ZM133.954 339.846C133.954 344.077 137.308 347.251 141.436 347.251C145.564 347.251 148.66 344.077 148.66 339.846C148.66 335.614 145.564 332.44 141.436 332.44C137.308 332.44 133.954 335.614 133.954 339.846Z" fill="url(#paint35_radial_532_5624)" fill-opacity="0.12"/>
<path fill-rule="evenodd" clip-rule="evenodd" d="M240.512 444.577C240.512 450.13 236.125 454.891 230.707 454.891C225.289 454.891 220.645 450.13 220.645 444.577C220.645 439.023 225.289 434.527 230.707 434.527C236.125 434.527 240.512 439.023 240.512 444.577ZM237.931 444.577C237.931 440.609 234.835 437.171 230.707 437.171C226.579 437.171 223.225 440.609 223.225 444.577C223.225 448.808 226.579 452.246 230.707 452.246C234.835 452.246 237.931 448.808 237.931 444.577Z" fill="url(#paint36_radial_532_5624)" fill-opacity="0.12"/>
<path fill-rule="evenodd" clip-rule="evenodd" d="M240.512 486.363C240.512 491.917 236.125 496.678 230.707 496.678C225.289 496.678 220.645 491.917 220.645 486.363C220.645 480.809 225.289 476.313 230.707 476.313C236.125 476.313 240.512 480.809 240.512 486.363ZM237.931 486.363C237.931 482.132 234.835 478.958 230.707 478.958C226.579 478.958 223.225 482.132 223.225 486.363C223.225 490.595 226.579 494.033 230.707 494.033C234.835 494.033 237.931 490.595 237.931 486.363Z" fill="url(#paint37_radial_532_5624)" fill-opacity="0.12"/>
<defs>
<radialGradient id="paint0_radial_532_5624" cx="0" cy="0" r="1" gradientUnits="userSpaceOnUse" gradientTransform="translate(220 249) rotate(90) scale(249 592)">
<stop stop-color="#22D96D"/>
<stop offset="0.895243" stop-color="#030C11"/>
</radialGradient>
<radialGradient id="paint1_radial_532_5624" cx="0" cy="0" r="1" gradientUnits="userSpaceOnUse" gradientTransform="translate(220 249) rotate(90) scale(249 592)">
<stop stop-color="#22D96D"/>
<stop offset="0.895243" stop-color="#030C11"/>
</radialGradient>
<radialGradient id="paint2_radial_532_5624" cx="0" cy="0" r="1" gradientUnits="userSpaceOnUse" gradientTransform="translate(220 249) rotate(90) scale(249 592)">
<stop stop-color="#22D96D"/>
<stop offset="0.895243" stop-color="#030C11"/>
</radialGradient>
<radialGradient id="paint3_radial_532_5624" cx="0" cy="0" r="1" gradientUnits="userSpaceOnUse" gradientTransform="translate(220 249) rotate(90) scale(249 592)">
<stop stop-color="#22D96D"/>
<stop offset="0.895243" stop-color="#030C11"/>
</radialGradient>
<radialGradient id="paint4_radial_532_5624" cx="0" cy="0" r="1" gradientUnits="userSpaceOnUse" gradientTransform="translate(220 249) rotate(90) scale(249 592)">
<stop stop-color="#22D96D"/>
<stop offset="0.895243" stop-color="#030C11"/>
</radialGradient>
<radialGradient id="paint5_radial_532_5624" cx="0" cy="0" r="1" gradientUnits="userSpaceOnUse" gradientTransform="translate(220 249) rotate(90) scale(249 592)">
<stop stop-color="#22D96D"/>
<stop offset="0.895243" stop-color="#030C11"/>
</radialGradient>
<radialGradient id="paint6_radial_532_5624" cx="0" cy="0" r="1" gradientUnits="userSpaceOnUse" gradientTransform="translate(220 249) rotate(90) scale(249 592)">
<stop stop-color="#22D96D"/>
<stop offset="0.895243" stop-color="#030C11"/>
</radialGradient>
<radialGradient id="paint7_radial_532_5624" cx="0" cy="0" r="1" gradientUnits="userSpaceOnUse" gradientTransform="translate(220 249) rotate(90) scale(249 592)">
<stop stop-color="#22D96D"/>
<stop offset="0.895243" stop-color="#030C11"/>
</radialGradient>
<radialGradient id="paint8_radial_532_5624" cx="0" cy="0" r="1" gradientUnits="userSpaceOnUse" gradientTransform="translate(220 249) rotate(90) scale(249 592)">
<stop stop-color="#22D96D"/>
<stop offset="0.895243" stop-color="#030C11"/>
</radialGradient>
<radialGradient id="paint9_radial_532_5624" cx="0" cy="0" r="1" gradientUnits="userSpaceOnUse" gradientTransform="translate(220 249) rotate(90) scale(249 592)">
<stop stop-color="#22D96D"/>
<stop offset="0.895243" stop-color="#030C11"/>
</radialGradient>
<radialGradient id="paint10_radial_532_5624" cx="0" cy="0" r="1" gradientUnits="userSpaceOnUse" gradientTransform="translate(220 249) rotate(90) scale(249 592)">
<stop stop-color="#22D96D"/>
<stop offset="0.895243" stop-color="#030C11"/>
</radialGradient>
<radialGradient id="paint11_radial_532_5624" cx="0" cy="0" r="1" gradientUnits="userSpaceOnUse" gradientTransform="translate(220 249) rotate(90) scale(249 592)">
<stop stop-color="#22D96D"/>
<stop offset="0.895243" stop-color="#030C11"/>
</radialGradient>
<radialGradient id="paint12_radial_532_5624" cx="0" cy="0" r="1" gradientUnits="userSpaceOnUse" gradientTransform="translate(220 249) rotate(90) scale(249 592)">
<stop stop-color="#22D96D"/>
<stop offset="0.895243" stop-color="#030C11"/>
</radialGradient>
<radialGradient id="paint13_radial_532_5624" cx="0" cy="0" r="1" gradientUnits="userSpaceOnUse" gradientTransform="translate(220 249) rotate(90) scale(249 592)">
<stop stop-color="#22D96D"/>
<stop offset="0.895243" stop-color="#030C11"/>
</radialGradient>
<radialGradient id="paint14_radial_532_5624" cx="0" cy="0" r="1" gradientUnits="userSpaceOnUse" gradientTransform="translate(220 249) rotate(90) scale(249 592)">
<stop stop-color="#22D96D"/>
<stop offset="0.895243" stop-color="#030C11"/>
</radialGradient>
<radialGradient id="paint15_radial_532_5624" cx="0" cy="0" r="1" gradientUnits="userSpaceOnUse" gradientTransform="translate(220 249) rotate(90) scale(249 592)">
<stop stop-color="#22D96D"/>
<stop offset="0.895243" stop-color="#030C11"/>
</radialGradient>
<radialGradient id="paint16_radial_532_5624" cx="0" cy="0" r="1" gradientUnits="userSpaceOnUse" gradientTransform="translate(220 249) rotate(90) scale(249 592)">
<stop stop-color="#22D96D"/>
<stop offset="0.895243" stop-color="#030C11"/>
</radialGradient>
<radialGradient id="paint17_radial_532_5624" cx="0" cy="0" r="1" gradientUnits="userSpaceOnUse" gradientTransform="translate(220 249) rotate(90) scale(249 592)">
<stop stop-color="#22D96D"/>
<stop offset="0.895243" stop-color="#030C11"/>
</radialGradient>
<radialGradient id="paint18_radial_532_5624" cx="0" cy="0" r="1" gradientUnits="userSpaceOnUse" gradientTransform="translate(220 249) rotate(90) scale(249 592)">
<stop stop-color="#22D96D"/>
<stop offset="0.895243" stop-color="#030C11"/>
</radialGradient>
<radialGradient id="paint19_radial_532_5624" cx="0" cy="0" r="1" gradientUnits="userSpaceOnUse" gradientTransform="translate(220 249) rotate(90) scale(249 592)">
<stop stop-color="#22D96D"/>
<stop offset="0.895243" stop-color="#030C11"/>
</radialGradient>
<radialGradient id="paint20_radial_532_5624" cx="0" cy="0" r="1" gradientUnits="userSpaceOnUse" gradientTransform="translate(220 249) rotate(90) scale(249 592)">
<stop stop-color="#22D96D"/>
<stop offset="0.895243" stop-color="#030C11"/>
</radialGradient>
<radialGradient id="paint21_radial_532_5624" cx="0" cy="0" r="1" gradientUnits="userSpaceOnUse" gradientTransform="translate(220 249) rotate(90) scale(249 592)">
<stop stop-color="#22D96D"/>
<stop offset="0.895243" stop-color="#030C11"/>
</radialGradient>
<radialGradient id="paint22_radial_532_5624" cx="0" cy="0" r="1" gradientUnits="userSpaceOnUse" gradientTransform="translate(220 249) rotate(90) scale(249 592)">
<stop stop-color="#22D96D"/>
<stop offset="0.895243" stop-color="#030C11"/>
</radialGradient>
<radialGradient id="paint23_radial_532_5624" cx="0" cy="0" r="1" gradientUnits="userSpaceOnUse" gradientTransform="translate(220 249) rotate(90) scale(249 592)">
<stop stop-color="#22D96D"/>
<stop offset="0.895243" stop-color="#030C11"/>
</radialGradient>
<radialGradient id="paint24_radial_532_5624" cx="0" cy="0" r="1" gradientUnits="userSpaceOnUse" gradientTransform="translate(220 249) rotate(90) scale(249 592)">
<stop stop-color="#22D96D"/>
<stop offset="0.895243" stop-color="#030C11"/>
</radialGradient>
<radialGradient id="paint25_radial_532_5624" cx="0" cy="0" r="1" gradientUnits="userSpaceOnUse" gradientTransform="translate(220 249) rotate(90) scale(249 592)">
<stop stop-color="#22D96D"/>
<stop offset="0.895243" stop-color="#030C11"/>
</radialGradient>
<radialGradient id="paint26_radial_532_5624" cx="0" cy="0" r="1" gradientUnits="userSpaceOnUse" gradientTransform="translate(220 249) rotate(90) scale(249 592)">
<stop stop-color="#22D96D"/>
<stop offset="0.895243" stop-color="#030C11"/>
</radialGradient>
<radialGradient id="paint27_radial_532_5624" cx="0" cy="0" r="1" gradientUnits="userSpaceOnUse" gradientTransform="translate(220 249) rotate(90) scale(249 592)">
<stop stop-color="#22D96D"/>
<stop offset="0.895243" stop-color="#030C11"/>
</radialGradient>
<radialGradient id="paint28_radial_532_5624" cx="0" cy="0" r="1" gradientUnits="userSpaceOnUse" gradientTransform="translate(220 249) rotate(90) scale(249 592)">
<stop stop-color="#22D96D"/>
<stop offset="0.895243" stop-color="#030C11"/>
</radialGradient>
<radialGradient id="paint29_radial_532_5624" cx="0" cy="0" r="1" gradientUnits="userSpaceOnUse" gradientTransform="translate(220 249) rotate(90) scale(249 592)">
<stop stop-color="#22D96D"/>
<stop offset="0.895243" stop-color="#030C11"/>
</radialGradient>
<radialGradient id="paint30_radial_532_5624" cx="0" cy="0" r="1" gradientUnits="userSpaceOnUse" gradientTransform="translate(220 249) rotate(90) scale(249 592)">
<stop stop-color="#22D96D"/>
<stop offset="0.895243" stop-color="#030C11"/>
</radialGradient>
<radialGradient id="paint31_radial_532_5624" cx="0" cy="0" r="1" gradientUnits="userSpaceOnUse" gradientTransform="translate(220 249) rotate(90) scale(249 592)">
<stop stop-color="#22D96D"/>
<stop offset="0.895243" stop-color="#030C11"/>
</radialGradient>
<radialGradient id="paint32_radial_532_5624" cx="0" cy="0" r="1" gradientUnits="userSpaceOnUse" gradientTransform="translate(220 249) rotate(90) scale(249 592)">
<stop stop-color="#22D96D"/>
<stop offset="0.895243" stop-color="#030C11"/>
</radialGradient>
<radialGradient id="paint33_radial_532_5624" cx="0" cy="0" r="1" gradientUnits="userSpaceOnUse" gradientTransform="translate(220 249) rotate(90) scale(249 592)">
<stop stop-color="#22D96D"/>
<stop offset="0.895243" stop-color="#030C11"/>
</radialGradient>
<radialGradient id="paint34_radial_532_5624" cx="0" cy="0" r="1" gradientUnits="userSpaceOnUse" gradientTransform="translate(220 249) rotate(90) scale(249 592)">
<stop stop-color="#22D96D"/>
<stop offset="0.895243" stop-color="#030C11"/>
</radialGradient>
<radialGradient id="paint35_radial_532_5624" cx="0" cy="0" r="1" gradientUnits="userSpaceOnUse" gradientTransform="translate(220 249) rotate(90) scale(249 592)">
<stop stop-color="#22D96D"/>
<stop offset="0.895243" stop-color="#030C11"/>
</radialGradient>
<radialGradient id="paint36_radial_532_5624" cx="0" cy="0" r="1" gradientUnits="userSpaceOnUse" gradientTransform="translate(220 249) rotate(90) scale(249 592)">
<stop stop-color="#22D96D"/>
<stop offset="0.895243" stop-color="#030C11"/>
</radialGradient>
<radialGradient id="paint37_radial_532_5624" cx="0" cy="0" r="1" gradientUnits="userSpaceOnUse" gradientTransform="translate(220 249) rotate(90) scale(249 592)">
<stop stop-color="#22D96D"/>
<stop offset="0.895243" stop-color="#030C11"/>
</radialGradient>
</defs>
</svg>
