<svg width="29" height="24" viewBox="0 0 29 24" fill="none" xmlns="http://www.w3.org/2000/svg">
<path id="Primary" d="M6 1.49805V5.24805H10.125H10.875H15V1.49805H6ZM5.25 5.24805V1.49805H3C1.75781 1.49805 0.75 2.50586 0.75 3.74805V5.24805H5.25ZM0.75 5.99805V10.873H10.125V5.99805H0.75ZM0.75 16.498H5.25V11.623H0.75V16.498ZM0.75 17.248V18.748C0.75 19.9902 1.75781 20.998 3 20.998H10.125V17.248H6H5.25H0.75ZM6 16.498H12.0375C12.0609 16.7512 12.0938 16.9996 12.1359 17.248H10.8703V20.998H13.7203C13.9078 21.2605 14.1094 21.509 14.3203 21.748H3C1.34531 21.748 0 20.4027 0 18.748V3.74805C0 2.09336 1.34531 0.748047 3 0.748047H18C19.6547 0.748047 21 2.09336 21 3.74805V6.02617C20.9203 5.95586 20.8453 5.88086 20.7656 5.81055C20.6063 5.66992 20.4328 5.55273 20.25 5.46367V3.74805C20.25 2.50586 19.2422 1.49805 18 1.49805H15.75V5.24805V5.99805H10.875V10.873H13.5938C13.4484 11.1168 13.3078 11.3699 13.1766 11.623H6.00469V16.498H6ZM19.3828 7.49805C19.3125 7.49805 19.2422 7.52148 19.1906 7.56836C18.0797 8.5668 16.8328 9.8418 15.8719 11.2574C14.9062 12.6777 14.2453 14.2059 14.2453 15.7199C14.2453 18.0637 15.4219 20.1402 17.2313 21.359C16.7672 20.698 16.4953 19.9059 16.4953 19.0527C16.4953 16.3621 19.4859 13.873 20.5922 13.0434C20.8359 12.8605 21.1594 12.8605 21.4031 13.0434C22.5094 13.873 25.5 16.3621 25.5 19.0527C25.5 19.8918 25.2328 20.6793 24.7781 21.3355C26.5734 20.1121 27.75 18.0496 27.75 15.7199C27.75 14.5105 27.2953 13.2074 26.6016 11.984C25.9078 10.7605 24.9937 9.64961 24.1078 8.83398C24 8.73555 23.8312 8.73555 23.7234 8.83398C23.4281 9.10586 23.1422 9.42461 22.8703 9.75274C22.5703 10.1184 22.0172 10.123 21.7078 9.7668C21.0375 8.98398 20.325 8.25273 19.5703 7.57305C19.5187 7.52617 19.4531 7.50273 19.3828 7.50273V7.49805ZM21 22.498C21.1313 22.498 21.2625 22.4934 21.3891 22.4887C23.3156 22.3059 24.75 20.8012 24.75 19.0574C24.75 17.9793 24.1406 16.8543 23.2922 15.8371C22.4813 14.8668 21.5391 14.0934 21 13.6855C20.4609 14.0934 19.5188 14.8668 18.7078 15.8371C17.8594 16.8496 17.25 17.9746 17.25 19.0574C17.25 20.8012 18.6844 22.3105 20.6156 22.4887C20.7422 22.4934 20.8687 22.498 21 22.498ZM13.5 15.7199C13.5 13.9949 14.25 12.3168 15.2531 10.8355C16.2609 9.34961 17.55 8.03242 18.6891 7.01055C18.8859 6.83242 19.1391 6.74805 19.3875 6.74805C19.6313 6.74805 19.8797 6.83711 20.0719 7.01523C20.85 7.71836 21.5859 8.47305 22.275 9.2793C22.275 9.2793 22.275 9.2793 22.2797 9.2793H22.2844H22.2891L22.2938 9.27461C22.575 8.93711 22.8844 8.58086 23.2172 8.27617C23.6109 7.91523 24.2203 7.91523 24.6141 8.28086C25.5562 9.14805 26.5219 10.3199 27.2531 11.6137C27.9844 12.9027 28.5 14.3371 28.5 15.7199C28.5 19.709 25.3922 23.0043 21.4406 23.234C21.2953 23.248 21.15 23.2527 21 23.2527C20.8547 23.2527 20.7094 23.248 20.5687 23.234C16.5703 23.0137 13.5 19.709 13.5 15.7199Z" fill="#4C5D64"/>
</svg>
