<svg width="24" height="24" viewBox="0 0 24 24" fill="none" xmlns="http://www.w3.org/2000/svg">
<g id="circle-wifi" clip-path="url(#clip0_531_3383)">
<path id="Primary" d="M23.25 12C23.25 10.5226 22.959 9.05972 22.3936 7.69481C21.8283 6.3299 20.9996 5.08971 19.955 4.04505C18.9103 3.00039 17.6701 2.17172 16.3052 1.60636C14.9403 1.04099 13.4774 0.75 12 0.75C10.5226 0.75 9.05972 1.04099 7.69481 1.60636C6.3299 2.17172 5.08971 3.00039 4.04505 4.04505C3.00039 5.08971 2.17172 6.3299 1.60636 7.69481C1.04099 9.05972 0.75 10.5226 0.75 12C0.75 13.4774 1.04099 14.9403 1.60636 16.3052C2.17172 17.6701 3.00039 18.9103 4.04505 19.955C5.08971 20.9996 6.3299 21.8283 7.69481 22.3936C9.05972 22.959 10.5226 23.25 12 23.25C13.4774 23.25 14.9403 22.959 16.3052 22.3936C17.6701 21.8283 18.9103 20.9996 19.955 19.955C20.9996 18.9103 21.8283 17.6701 22.3936 16.3052C22.959 14.9403 23.25 13.4774 23.25 12ZM0 12C0 8.8174 1.26428 5.76516 3.51472 3.51472C5.76516 1.26428 8.8174 0 12 0C15.1826 0 18.2348 1.26428 20.4853 3.51472C22.7357 5.76516 24 8.8174 24 12C24 15.1826 22.7357 18.2348 20.4853 20.4853C18.2348 22.7357 15.1826 24 12 24C8.8174 24 5.76516 22.7357 3.51472 20.4853C1.26428 18.2348 0 15.1826 0 12ZM5.475 10.0031C5.32031 10.1437 5.08594 10.1297 4.94531 9.975C4.80469 9.82031 4.81875 9.58594 4.97344 9.44531C6.83437 7.77187 9.3 6.75 12 6.75C14.7 6.75 17.1656 7.77187 19.0266 9.44531C19.1812 9.58594 19.1906 9.82031 19.0547 9.975C18.9188 10.1297 18.6797 10.1391 18.525 10.0031C16.7953 8.44687 14.5078 7.5 12 7.5C9.49219 7.5 7.20469 8.44687 5.475 10.0031ZM12.75 16.5C12.75 16.3011 12.671 16.1103 12.5303 15.9697C12.3897 15.829 12.1989 15.75 12 15.75C11.8011 15.75 11.6103 15.829 11.4697 15.9697C11.329 16.1103 11.25 16.3011 11.25 16.5C11.25 16.6989 11.329 16.8897 11.4697 17.0303C11.6103 17.171 11.8011 17.25 12 17.25C12.1989 17.25 12.3897 17.171 12.5303 17.0303C12.671 16.8897 12.75 16.6989 12.75 16.5ZM10.5 16.5C10.5 16.1022 10.658 15.7206 10.9393 15.4393C11.2206 15.158 11.6022 15 12 15C12.3978 15 12.7794 15.158 13.0607 15.4393C13.342 15.7206 13.5 16.1022 13.5 16.5C13.5 16.8978 13.342 17.2794 13.0607 17.5607C12.7794 17.842 12.3978 18 12 18C11.6022 18 11.2206 17.842 10.9393 17.5607C10.658 17.2794 10.5 16.8978 10.5 16.5ZM12 12C10.7437 12 9.59531 12.4781 8.73281 13.2562C8.57812 13.3969 8.34375 13.3828 8.20312 13.2281C8.0625 13.0734 8.07656 12.8391 8.23125 12.6984C9.22969 11.7984 10.5516 11.2453 12.0047 11.2453C13.4578 11.2453 14.7797 11.7937 15.7781 12.6984C15.9328 12.8391 15.9422 13.0734 15.8063 13.2281C15.6703 13.3828 15.4312 13.3922 15.2766 13.2562C14.4047 12.4734 13.2563 12 12 12Z" fill="#4C5D64"/>
</g>
<defs>
<clipPath id="clip0_531_3383">
<rect width="24" height="24" fill="white"/>
</clipPath>
</defs>
</svg>
