<svg width="18" height="17" viewBox="0 0 18 17" fill="none" xmlns="http://www.w3.org/2000/svg">
<g id="Social Icons" clip-path="url(#clip0_531_2854)">
<path id="Vector" d="M17.4334 5.03977C17.4334 5.03977 17.2694 3.88148 16.7641 3.37289C16.1242 2.70352 15.4089 2.70023 15.0808 2.66086C12.7314 2.49023 9.20406 2.49023 9.20406 2.49023H9.1975C9.1975 2.49023 5.67016 2.49023 3.32078 2.66086C2.99266 2.70023 2.27734 2.70352 1.6375 3.37289C1.13219 3.88148 0.971406 5.03977 0.971406 5.03977C0.971406 5.03977 0.800781 6.40148 0.800781 7.75992V9.03305C0.800781 10.3915 0.968125 11.7532 0.968125 11.7532C0.968125 11.7532 1.13219 12.9115 1.63422 13.4201C2.27406 14.0895 3.11406 14.0665 3.48813 14.1387C4.83344 14.2666 9.20078 14.306 9.20078 14.306C9.20078 14.306 12.7314 14.2995 15.0808 14.1321C15.4089 14.0927 16.1242 14.0895 16.7641 13.4201C17.2694 12.9115 17.4334 11.7532 17.4334 11.7532C17.4334 11.7532 17.6008 10.3948 17.6008 9.03305V7.75992C17.6008 6.40148 17.4334 5.03977 17.4334 5.03977ZM7.465 10.5785V5.8568L12.003 8.22586L7.465 10.5785Z" fill="#4C5D64"/>
</g>
<defs>
<clipPath id="clip0_531_2854">
<rect width="16.8" height="16.8" fill="white" transform="translate(0.800781)"/>
</clipPath>
</defs>
</svg>
