<svg width="719" height="99" viewBox="0 0 719 99" fill="#0E0E11" xmlns="http://www.w3.org/2000/svg">
<path d="M347.039 0.147038H366.481V58.1825C366.481 68.9594 357.743 77.6247 347.039 77.6247V0.0742188V0.147038Z" fill="#0E0E11"/>
<path d="M126.186 78.4985V0.0742188H236.65V19.5164H147.23V39.5412H231.043V58.5465H147.23V78.5713H236.65V98.0135H137.691L126.186 78.4257V78.4985Z" fill="#0E0E11"/>
<path d="M0 98.0121V62.2588L87.3083 19.515L0 19.9519V0H67.866C78.643 0 87.3083 8.73808 87.3083 19.4422L110.319 9.17498V35.5348L21.1171 78.6427L110.319 78.3514V97.9393H0V98.0121Z" fill="#0E0E11"/>
<path d="M477.898 0.0742188H588.217C588.217 10.924 579.406 19.6621 568.629 19.6621H544.162V98.0863H523.191V19.6621H497.559C486.709 19.6621 477.971 10.8512 477.971 0.0742188H477.898Z" fill="#0E0E11"/>
<path d="M432.678 78.4985V19.7349H458.309V0.0742188H432.678H411.706H386.074V19.7349H411.706V78.4985H386.074V98.0863H411.706H432.678H458.309V78.4985H432.678Z" fill="#0E0E11"/>
<path d="M295.702 0.0742188H275.822L256.234 11.5794V98.0863H275.677V21.1184H295.702V0.0742188Z" fill="#0E0E11"/>
<path d="M358.757 98.1591H332.834L321.183 77.6975L281.789 8.8123V0.0742188H302.688L347.034 77.6975L358.757 98.1591Z" fill="#0E0E11"/>
<path d="M628.784 39.614V36.9926V0.0742188H607.812V98.0863H628.784V78.3528V58.4737V39.614Z" fill="#0E0E11"/>
<path d="M697.068 0.0742188V36.9926V39.614V58.4737V78.3528V98.0863H718.113V0.0742188H697.068Z" fill="#0E0E11"/>
<path d="M697.146 58.4735C696.855 47.9878 688.262 39.541 677.704 39.541H619.668V58.4735H697.146Z" fill="#0E0E11"/>
</svg>
